<svg version="1.0" xmlns="http://www.w3.org/2000/svg" width="256" height="256" xml:space="preserve">
	<g fill="#93c5fd" fill-opacity="0.05">
		<path d="M49.364 165.563z"/>
		<circle cx="39.559" cy="154.83" r=".867"/>
		<circle cx="167.474" cy="160.273" r=".64"/>
		<circle cx="38.351" cy="143.648" r=".512"/>
		<circle cx="41.222" cy="138.927" r=".537"/>
		<circle cx="38.351" cy="149.185" r=".751"/>
		<path d="m66.069 115.184-4.577-12.595-1.879.683 6.768 18.622c1.113-4.297 3.988-9.375 11.163-11.654a34.45 34.45 0 0 1 2.784-.743 4.646 4.646 0 0 0 2.892-2.526 3.54 3.54 0 0 0-1.759-4.68 2.642 2.642 0 0 0-2.028-.068 2.629 2.629 0 0 0-1.48 1.385 1.946 1.946 0 0 0 .966 2.571 1.378 1.378 0 0 0 1.817-.683.923.923 0 0 0-.458-1.219.898.898 0 0 1 .742-1.631 2.716 2.716 0 0 1 1.347 3.59 3.174 3.174 0 0 1-4.189 1.575 3.739 3.739 0 0 1-1.858-4.942 4.41 4.41 0 0 1 2.482-2.323 4.434 4.434 0 0 1 3.398.114 5.335 5.335 0 0 1 2.65 7.053 6.352 6.352 0 0 1-.601 1.047c5.709-.894 11.476-1.141 11.732-1.152 2.691-.118 5.172-1.152 6.475-2.698 2.645-3.14 2.497-7.375-.36-10.3a5.634 5.634 0 0 0-3.992-1.71h-.089a5.617 5.617 0 0 0-3.943 1.615 4.332 4.332 0 0 0-1.314 3.068 4.33 4.33 0 0 0 1.241 3.099 3.283 3.283 0 0 0 2.368.995c.87 0 1.691-.334 2.312-.94a2.447 2.447 0 0 0 .743-1.736 2.455 2.455 0 0 0-.702-1.754 1.782 1.782 0 0 0-1.285-.54c-.472 0-.918.181-1.255.51a1.26 1.26 0 0 0-.021 1.777.848.848 0 0 0 1.17.015.917.917 0 0 1 1.267.016.889.889 0 0 1 .254.637.886.886 0 0 1-.271.63 2.605 2.605 0 0 1-1.829.743c-.713 0-1.379-.28-1.875-.789a3.054 3.054 0 0 1 .051-4.31 3.565 3.565 0 0 1 2.507-1.02c.975 0 1.887.383 2.566 1.079a4.23 4.23 0 0 1 1.212 3.027 4.233 4.233 0 0 1-1.283 2.998 5.07 5.07 0 0 1-3.564 1.449 5.064 5.064 0 0 1-3.65-1.534 6.114 6.114 0 0 1-1.751-4.373 6.113 6.113 0 0 1 1.854-4.329 7.453 7.453 0 0 1 5.239-2.125h.065a7.417 7.417 0 0 1 5.254 2.25c3.47 3.553 3.658 8.897.448 12.707-1.64 1.945-4.544 3.191-7.769 3.333-.031.001-2.684.117-6.133.46 1.046.455 1.933 1.075 2.648 1.852 3.023 3.288 1.645 7.065 1.585 7.224a6.409 6.409 0 0 1-3.766 3.854 5.298 5.298 0 0 1-1.897.352 5.36 5.36 0 0 1-4.981-3.425c-.424-1.108-.391-2.315.093-3.399s1.361-1.914 2.469-2.336a3.69 3.69 0 0 1 1.328-.246c1.539 0 2.942.964 3.493 2.399a3.17 3.17 0 0 1-1.826 4.086 2.693 2.693 0 0 1-.966.179 2.73 2.73 0 0 1-2.537-1.743.897.897 0 0 1 1.673-.641.926.926 0 0 0 1.19.53 1.375 1.375 0 0 0 .792-1.772 1.957 1.957 0 0 0-1.818-1.247 1.92 1.92 0 0 0-.689.127 2.627 2.627 0 0 0-1.472 1.394 2.632 2.632 0 0 0-.055 2.028 3.558 3.558 0 0 0 3.306 2.272c.43 0 .854-.079 1.258-.233a4.643 4.643 0 0 0 2.723-2.795c.046-.125 1.049-2.928-1.221-5.396-1.661-1.806-4.363-2.185-6.338-2.185-1.392 0-2.597.184-3.191.294-.319.064-.641.133-.958.204l-.091.02c-.954.215-1.829.449-2.591.691-2.467.783-4.539 2-6.178 3.626a5.352 5.352 0 0 1 5.901 3.427 4.408 4.408 0 0 1-.146 3.396 4.417 4.417 0 0 1-2.505 2.299c-.411.15-.84.226-1.274.226a3.752 3.752 0 0 1-3.512-2.453 3.17 3.17 0 0 1 1.888-4.058 2.704 2.704 0 0 1 2.074.088 2.693 2.693 0 0 1 1.404 1.529.89.89 0 0 1-.029.685.89.89 0 0 1-.813.519.898.898 0 0 1-.841-.588.917.917 0 0 0-1.181-.55 1.376 1.376 0 0 0-.819 1.761 1.952 1.952 0 0 0 1.827 1.276c.226 0 .448-.04.662-.118a2.63 2.63 0 0 0 1.494-1.371c.299-.642.33-1.361.087-2.026a3.55 3.55 0 0 0-3.327-2.325 3.52 3.52 0 0 0-1.208.214 4.636 4.636 0 0 0-2.763 2.753.832.832 0 0 1-.079.158 17.722 17.722 0 0 0-1.146 4.844l2.309 6.353 42.816-15.561-10.3-28.341-32.118 11.677 2.028 5.58a.897.897 0 0 1-1.684.612l-2.028-5.58-1.879.683 3.402 9.363a.898.898 0 0 1-.842 1.202.899.899 0 0 1-.842-.59l-3.403-9.362-1.88.683 4.577 12.595a.898.898 0 0 1-.842 1.202.899.899 0 0 1-.843-.59zM128.407 106.382a.856.856 0 0 0 .253-.593v-.02a.859.859 0 0 0-.253-.611.86.86 0 0 0-.613-.254.867.867 0 0 0-.611 1.478.887.887 0 0 0 1.224 0zM167.584 78.758c.158-.243.206-.507.137-.742-.119-.398-.56-.665-1.098-.665a1.68 1.68 0 0 0-.477.07l-5.916 1.758c-.707.21-1.152.82-.993 1.358.118.398.559.665 1.096.665.159 0 .319-.024.478-.071l5.916-1.758c.367-.109.671-.327.857-.615z"/>
		<path d="m179.854 99.029-8.158-27.454-20.426 6.069.453 1.523 1.443-.429a.9.9 0 0 1 1.043 1.285.893.893 0 0 1-.533.432l-1.442.429.453 1.524 1.442-.429a.9.9 0 0 1 1.043 1.286.888.888 0 0 1-.532.432l-1.442.429.452 1.523 1.442-.429a.896.896 0 0 1 .511 1.718l-1.442.429.453 1.523 1.442-.429a.9.9 0 0 1 1.114.603.894.894 0 0 1-.603 1.114l-1.443.429.453 1.523 1.442-.429a.9.9 0 0 1 1.114.603.894.894 0 0 1-.603 1.114l-1.443.429.453 1.523 1.443-.429a.9.9 0 0 1 1.043 1.285.896.896 0 0 1-.533.432l-1.443.429.453 1.524 1.443-.429a.9.9 0 0 1 1.043 1.286.893.893 0 0 1-.533.432l-1.442.429.452 1.523 1.443-.429a.901.901 0 0 1 1.114.603.895.895 0 0 1-.604 1.114l-1.442.429.453 1.523 20.424-6.063zM157.52 81.048c-.441-1.486.546-3.095 2.201-3.586l5.915-1.758c.323-.096.655-.145.987-.145 1.338 0 2.469.782 2.814 1.947.223.745.098 1.536-.348 2.226a3.32 3.32 0 0 1-1.854 1.36l-5.915 1.758a3.465 3.465 0 0 1-.988.145c-1.336-.001-2.467-.783-2.812-1.947zm3.157 3.45a.9.9 0 0 1 .604-1.114l6.281-1.867a.9.9 0 0 1 1.043 1.285.893.893 0 0 1-.533.432l-6.281 1.867a.9.9 0 0 1-1.114-.603zM129.268 59.898a4.988 4.988 0 0 0-4.983 4.983 4.988 4.988 0 0 0 4.983 4.983 4.988 4.988 0 0 0 4.981-4.983 4.988 4.988 0 0 0-4.981-4.983zm0 7.69a2.71 2.71 0 0 1-2.708-2.707 2.71 2.71 0 0 1 2.708-2.707 2.71 2.71 0 0 1 2.707 2.707 2.71 2.71 0 0 1-2.707 2.707z"/>
		<ellipse cx="46.469" cy="159.346" rx="1.955" ry="1.857"/>
		<circle cx="116.602" cy="130.288" r=".639"/>
		<circle cx="129.268" cy="64.882" r=".915"/>
		<path d="m67.794 135.52-11.31-31.118 1.446-.526 11.31 31.12zM70.918 134.392l-.397-1.092 42.818-15.549.397 1.092z"/>
		<circle cx="145.777" cy="135.414" r=".697"/>
		<path d="M129.726 144.727h32.103v-19.909h-32.103v19.909zm24.111-14.331 1.136-2.058a.899.899 0 0 1 1.647.184.896.896 0 0 1-.077.682l-1.137 2.059a.896.896 0 1 1-1.569-.867zm-6.013-1.288.418-2.314a.895.895 0 1 1 1.763.318l-.418 2.314a.896.896 0 1 1-1.763-.318zm-6.131-2.666a.897.897 0 0 1 1.618.351l.419 2.314a.89.89 0 0 1-.146.67.889.889 0 0 1-.736.386.895.895 0 0 1-.881-.737l-.418-2.314a.89.89 0 0 1 .144-.67zm4.084 11.544c2.754 0 5.417-.955 7.212-2.572-1.795-1.617-4.458-2.574-7.212-2.574-2.141 0-4.161.54-5.846 1.561a.898.898 0 0 1-1.231-.303.896.896 0 0 1 .303-1.23c1.963-1.189 4.306-1.818 6.773-1.818 3.611 0 7.03 1.408 9.144 3.768a.893.893 0 0 1 0 1.195c-2.114 2.359-5.532 3.768-9.144 3.768-3.613 0-7.031-1.408-9.145-3.768a.893.893 0 0 1 .069-1.265.922.922 0 0 1 1.265.07c1.781 1.983 4.701 3.168 7.812 3.168zm-2.49-2.572a2.493 2.493 0 0 1 2.49-2.49 2.492 2.492 0 0 1 2.488 2.49 2.49 2.49 0 0 1-2.488 2.488 2.492 2.492 0 0 1-2.49-2.488zm-8.351-6.891a.891.891 0 0 1 .86-.648c.327 0 .628.177.785.463l1.137 2.059a.889.889 0 0 1 .076.681.897.897 0 0 1-1.645.185l-1.137-2.059a.884.884 0 0 1-.076-.681zm-3.69 13.415h29.062a.897.897 0 0 1 0 1.792h-29.062a.897.897 0 0 1 0-1.792zM146.672 123.025h6.743l-6.743-11.094zM145.523 148.537l.027-.008a.824.824 0 0 1 .446-.002l.034.01h10.863v-2.02H134.66v2.02h10.863zM138.139 123.025h6.741v-11.091zM179.66 152.619h11.137l-11.137-4.512zM195.89 153.638l.001.001-.001-.001z"/>
		<circle cx="49.32" cy="145.523" r="1.77"/>
		<path d="M66.016 174.74c-.887 1.865-1.266 4.775-.293 6.666 2.06-.44 3.925-2.58 4.816-4.455.411-.863.596-1.83.549-2.82-.298 1.107-.698 2.431-1.179 3.649a.89.89 0 0 1-1.161.504.899.899 0 0 1-.505-1.164c.453-1.146.833-2.408 1.124-3.492a38.713 38.713 0 0 0-1.935 3.047.897.897 0 0 1-1.563-.877c.673-1.199 1.469-2.4 2.138-3.355a5.752 5.752 0 0 0-1.991 2.297zM71.307 170.381c.798-1.035 1.75-2.478 2.78-4.209l-1.97-.937c-.694 1.893-1.212 3.542-1.512 4.812l.327.156.042-.056-.016.068.349.166zM55.348 158.628c1.36 0 2.467-1.165 2.467-2.599 0-1.432-1.106-2.598-2.467-2.598s-2.467 1.166-2.467 2.598c0 1.434 1.107 2.599 2.467 2.599zM81.45 194.957zM76.199 155.648a124.035 124.035 0 0 0-3.444 7.906l2.233 1.063a124.336 124.336 0 0 0 3.96-7.661c2.522-5.302 4.023-10.399 4.831-13.696-2.05 2.707-5.059 7.09-7.58 12.388zM92.79 167.373a.315.315 0 0 0-.087.012c-.277.072-.483.553-.343 1.084.143.541.563.848.835.775.12-.031.227-.137.299-.298.101-.226.116-.505.042-.786-.117-.441-.445-.787-.746-.787zM101.398 145.665l2.598 1.856-.963-3.045a.895.895 0 0 1 .322-.991l2.568-1.896-3.193-.024a.896.896 0 0 1-.843-.612l-1.01-3.03-1.011 3.03a.896.896 0 0 1-.843.612l-3.193.024 2.568 1.896a.896.896 0 0 1 .322.991l-.963 3.046 2.599-1.857a.908.908 0 0 1 1.042 0zM48.532 63.816a3.596 3.596 0 0 0-2.364-.176 3.53 3.53 0 0 0 1.732 1.616 3.562 3.562 0 0 0 2.364.177 3.52 3.52 0 0 0-1.732-1.617zM28.426 15.43a3.259 3.259 0 0 0-3.105 2.322l-.008.026a3.19 3.19 0 0 0-.127.892c0 1.787 1.454 3.24 3.24 3.24s3.24-1.454 3.24-3.24a3.243 3.243 0 0 0-3.24-3.24zm.781 4.137h-1.558a.897.897 0 0 1 0-1.792h1.558a.897.897 0 0 1 0 1.792zM18.188 17.766l-.011-.042a3.26 3.26 0 0 0-3.098-2.293 3.245 3.245 0 0 0-3.24 3.241 3.244 3.244 0 0 0 3.24 3.24 3.245 3.245 0 0 0 3.241-3.24c0-.303-.044-.607-.132-.906zm-2.329 1.801H14.3a.897.897 0 0 1 0-1.792h1.559a.897.897 0 0 1 0 1.792zM16.792 88.17v.001-.001zM82.512 65.77a.862.862 0 0 1-.167.024l-.02.001a.711.711 0 0 1-.169-.014.409.409 0 0 1-.061-.01l-.058-.018a.974.974 0 0 1-.13-.051.962.962 0 0 1-.236-.17.958.958 0 0 1-.067-.076c-.022-.028-.041-.052-.058-.079a.935.935 0 0 1-.055-.104.57.57 0 0 1-.032-.068l-1.122-3.097-2.03 1.903 1.177 5.351 1.266-1.245a.887.887 0 0 1 .837-.232.89.89 0 0 1 .64.586l.564 1.682 3.471-4.235-.948-2.618-2.436 2.282a.886.886 0 0 1-.333.177l-.033.011zM109.675 57.054a6.742 6.742 0 0 0 6.734-6.733 6.741 6.741 0 0 0-6.734-6.733 6.74 6.74 0 0 0-6.732 6.733 6.74 6.74 0 0 0 6.732 6.733zm0-9.979a3.25 3.25 0 0 1 3.247 3.246 3.25 3.25 0 0 1-3.247 3.245 3.25 3.25 0 0 1-3.246-3.245 3.25 3.25 0 0 1 3.246-3.246zM127.938 89.799zM81.455 71.792l-.467-1.391-1.046 1.029.384 1.74z"/>
		<circle cx="109.675" cy="50.321" r="1.454"/>
		<path d="M219.697 101.841c-2.033 3.041-5.008 4.778-8.199 4.778-3.192 0-6.166-1.737-8.199-4.778-2.285.724-3.312 1.625-3.312 2.215 0 1.348 4.484 3.307 11.511 3.307s11.51-1.958 11.51-3.307c0-.589-1.026-1.49-3.311-2.215zM7.986 106.087h2.325v1.072H7.986zM16.72 88.141v.001zM62.746 56.604H17.844v28.918l2.902-2.901v-22.22a.897.897 0 0 1 1.792 0v21.695h33.07a.897.897 0 0 1 0 1.792H22.013l-2.901 2.901h43.634V56.604zM29.823 70.35v9.076a.897.897 0 0 1-1.792 0V70.35c0-3.251 2.182-6.048 5.46-7.043v-3.638c0-.494.402-.896.896-.896h3.18c.494 0 .896.402.896.896v3.639a8.11 8.11 0 0 1 2.28 1.111.893.893 0 0 1 .221 1.247.897.897 0 0 1-1.248.22 6.372 6.372 0 0 0-2.335-1.01.9.9 0 0 1-.711-.876v-3.436h-1.388V64a.9.9 0 0 1-.709.876c-2.797.597-4.75 2.848-4.75 5.474zm16.394 10.445c-1.416 0-2.783-.532-3.888-1.505-1.105.973-2.473 1.505-3.888 1.505-3.498 0-6.343-3.225-6.343-7.188s2.845-7.188 6.343-7.188c1.056 0 2.077.291 2.992.849v-5.637a.9.9 0 0 1 .444-.774.91.91 0 0 1 .893-.006l2.275 1.285a5.315 5.315 0 0 1 4.206.039 5.312 5.312 0 0 1 3.027 3.533.892.892 0 0 1-.447 1.019 5.362 5.362 0 0 1-2.496.622c1.923 1.236 3.224 3.578 3.224 6.257.001 3.964-2.845 7.189-6.342 7.189zm13.627-1.143a.897.897 0 0 1-1.792 0v-19.25a.897.897 0 0 1 1.792 0v19.25z"/>
		<path d="m44.276 63.759-1.051-.593v4.101a5.706 5.706 0 0 1 3.092-.848 5.332 5.332 0 0 1-2.041-2.66zM13.983 100.389h2.325v1.072h-2.325zM46.217 68.211c-1.207 0-2.345.558-3.205 1.57l-.038.039a.888.888 0 0 1-1.182.096l-.029-.023a.833.833 0 0 1-.076-.069l-.043-.045c-.858-1.01-1.996-1.567-3.203-1.567-.649 0-1.265.164-1.824.456a.896.896 0 0 1 .599 1.363l-1.083 1.692a.892.892 0 0 1-1.238.271.896.896 0 0 1-.271-1.237l.652-1.02c-.854.981-1.386 2.353-1.386 3.87 0 2.976 2.042 5.396 4.551 5.396 1.206 0 2.345-.558 3.205-1.57a.892.892 0 0 1 .683-.316c.264 0 .513.115.683.316.86 1.013 1.998 1.57 3.205 1.57 2.509 0 4.551-2.42 4.551-5.396s-2.042-5.396-4.551-5.396zM184.4 137.521zM239.998 106.087h2.324v1.072h-2.324zM129.754 47.483a3.662 3.662 0 0 0 1.81.482 3.669 3.669 0 0 0 3.179-1.844 3.633 3.633 0 0 0 .351-2.776 3.626 3.626 0 0 0-1.712-2.212 3.662 3.662 0 0 0-1.81-.482 3.668 3.668 0 0 0-3.179 1.843 3.63 3.63 0 0 0-.362 2.739l.02.073c.256.92.862 1.697 1.703 2.177zm-.184-4.315a2.31 2.31 0 0 1 1.998-1.159 2.303 2.303 0 0 1 2.216 1.695 2.302 2.302 0 0 1-2.218 2.903c-.398 0-.792-.105-1.139-.304a2.298 2.298 0 0 1-.857-3.135z"/>
		<path d="M192.164 117.751zM245.994 100.389h2.326v1.072h-2.326z"/>
		<circle cx="221.826" cy="53.136" r="1.091"/>
		<path d="M234 100.389h2.326v1.072H234z"/>
		<circle cx="242.588" cy="20.036" r=".634"/>
		<path d="M158.997 12.372zM131.818 43.869a.504.504 0 0 0-.691.189.507.507 0 0 0 .189.69c.24.137.558.044.69-.188a.506.506 0 0 0-.188-.691zM196.961 64.385c-.377.578-.99 1.742-1.844 4.06l1.707.397c.257-2.456.221-3.772.137-4.457zM238.132 17.06a.045.045 0 0 0-.045-.044.045.045 0 0 0-.045.044c0 .049.09.049.09 0zM190.324 91.94l.435.101c1.255-2.787 2.931-7.025 4.058-11.873.79-3.399 1.408-6.692 1.792-9.537l-2.087-.485c-.91 2.718-1.809 5.946-2.6 9.349-1.128 4.85-1.494 9.392-1.598 12.445zM222.334 61.133c.137-1.732-.186-2.988-.537-3.592l-.191-.266c-.1-.108-.169-.136-.188-.138h-.005c-.286 0-1.32 1.185-1.526 3.801-.208 2.633.609 3.932.904 3.992h.004c.297.001 1.333-1.183 1.539-3.797zM211.5 44.755l.821-.475-.979-.566a.898.898 0 0 1 .262.632.892.892 0 0 1-.104.409zM1.989 100.389h2.325v1.072H1.989zM107.316 22.65h3.667v1.194h-3.667zM101.856 22.65h3.667v1.194h-3.667zM99.126 19.664h3.667v1.194h-3.667zM99.126 22.65h.938v1.194h-.938zM110.045 19.664h3.667v1.194h-3.667zM104.586 19.664h3.667v1.194h-3.667zM104.586 25.636h9.126v1.193h-9.126zM108.759 5.138c-2.758 0-5.389.553-7.442 1.543H116.2c-2.053-.99-4.683-1.543-7.441-1.543zM112.775 22.65h3.667v1.194h-3.667zM109.265 0h-1.013v2.829a.888.888 0 0 1-.177.53c.227-.007.454-.013.684-.013.229 0 .457.006.684.013a.888.888 0 0 1-.177-.53V0zM6.412 66.497V52.922a.935.935 0 0 0-1.871 0 .897.897 0 0 1-1.792 0 .935.935 0 0 0-1.871 0c0 .485-.38.878-.866.894h-.013v12.68h6.413zM123.694 22.65h.937v1.194h-.937zM99.126 25.636h3.667v1.193h-3.667zM120.964 19.664h3.667v1.194h-3.667zM99.126 14.928h25.504v2.944H99.126zM173.905 14.742l1.169-7.354-1.21-3.907c-1.169 2.856-1.166 7.114.041 11.261zM237.174 5.633c.176 0 .391-.025.641-.073-.02-.415-.143-.786-.346-1.027-.137-.163-.289-.239-.475-.239a.823.823 0 0 0-.172.019c-.51.106-.57.454-.576.558-.007.118.019.521.633.726.05.016.141.036.295.036zM230.154 3.067c-.192 0-.398.081-.613.242-.287.214-.559.552-.773.952.896-.176 1.35-.813 1.414-1.193l-.028-.001zM234.626 8.639c.172.161.411.201.729.129.618-.142 1.348-.695 1.841-1.352a2.77 2.77 0 0 1-.883-.12c-.723-.241-1.274-.7-1.582-1.277-.313.752-.656 2.107-.105 2.62zM217.002 3.057a.658.658 0 0 0-.348.386.797.797 0 0 0 .272.037c.235 0 .534-.054.864-.154a.564.564 0 0 0-.113-.125c-.247-.187-.468-.238-.675-.144zM211.498 98.213c-3.514 0-6.614-.674-8.551-1.831 1.018 4.944 4.506 8.445 8.551 8.445 4.044 0 7.533-3.501 8.55-8.445-1.937 1.157-5.036 1.831-8.55 1.831zM207.195 2.596a4.046 4.046 0 0 0-.16.887c.156-.395.186-.692.16-.887zM239.264 7.395c.07-.142.145-.287.221-.435a2.937 2.937 0 0 1-.072.023 4.571 4.571 0 0 1-.113.323l-.036.089zM120.964 25.636h3.667v1.193h-3.667zM192.33 9.038c-1.193-3.635-3.248-6.882-5.543-8.739L186.418 0h-.33l1.123 3.63 5.119 5.408zM118.234 22.65h3.668v1.194h-3.668zM115.504 19.664h3.668v1.194h-3.668zM115.504 25.636h3.668v1.193h-3.668zM0 72.01h6.412v1.929H0zM126.423 14.928h2.945V26.83h-2.945zM176.582 6.201l8.715-2.697L184.212 0h-9.549z"/>
		<path d="M208.708 1.534c.247.448.688 1.7-.546 3.656-.229.365-.51.746-.833 1.135l.052.205c.426 1.608 1.114 2.716 1.891 3.039.475.197 1.025.112 1.645-.248 1.59-.922 2.008-3.782 2.076-4.346.005-.059.012-.127.02-.193a.901.901 0 0 1 .977-.784c.484.049.845.48.807.963l-.013.134c-.047.567-.196 3.449 1.545 3.667.73.089 1.197-.784 1.405-1.298a6.39 6.39 0 0 0 .439-2.382c-1.035.28-1.932.232-2.528-.15a1.676 1.676 0 0 1-.783-1.578c.058-.8.62-1.576 1.401-1.929.797-.361 1.731-.232 2.497.348.261.197.483.463.664.795.741-.462 1.374-1.031 1.808-1.629.051-.071.1-.144.148-.218.021-.253.045-.492.07-.72H208l-.478.319a2.543 2.543 0 0 1-.488.254c.035-.003.069-.007.105-.007.648 0 1.235.361 1.569.967zM181.771 248.114a.824.824 0 0 1-.077-.175c-.908-2.938-2.064-5.705-3.438-8.229l-7.062 2.187a45.07 45.07 0 0 0 1.808 8.734l1.661 5.369h9.55l-2.442-7.886zm-9.083-2.807a3.298 3.298 0 0 1 .732-3.209.906.906 0 0 1 .833-.27.897.897 0 0 1 .602-.633c.315-.097.641-.146.968-.146 1.45 0 2.713.932 3.142 2.316a3.29 3.29 0 0 1-3.136 4.254h-.001a3.27 3.27 0 0 1-3.14-2.312zm6.474 9.801a3.276 3.276 0 0 1-2.504-.232 3.27 3.27 0 0 1-1.605-1.936 3.295 3.295 0 0 1 .732-3.209.913.913 0 0 1 .832-.27.889.889 0 0 1 .601-.629 3.3 3.3 0 0 1 2.504.231 3.288 3.288 0 0 1-.56 6.045z"/>
		<path d="M176.765 252.412c.118.381.377.693.729.879s.758.225 1.137.105a1.493 1.493 0 0 0-.882-2.851.902.902 0 0 1-.44.023.864.864 0 0 1-.211.383 1.499 1.499 0 0 0-.333 1.461zM186.002 255.723l.086.277h.313a9.575 9.575 0 0 0-.399-.277zM171.005 239.029c.009.325.023.668.044 1.035l6.291-1.947c-.18-.295-.363-.59-.551-.878l-5.784 1.79zM234.764 255.668c.283-.166.654-.443.806-.828.126-.321.084-.678-.134-1.12-.441-.899-1.451-1.354-3.004-1.354-2.154 0-4.779.875-6.152 1.396-.367.139-.727.277-1.082.415-.381.147-.754.291-1.123.431-.1.492-.231.955-.385 1.393h10.505l.569-.333zM174.4 244.777a1.486 1.486 0 0 0 1.428 1.051 1.494 1.494 0 0 0 1.424-1.933 1.505 1.505 0 0 0-1.427-1.054c-.148 0-.297.022-.439.067a.895.895 0 0 1-.441.022.88.88 0 0 1-.211.386 1.502 1.502 0 0 0-.334 1.461zM175.828 247.236z"/>
		<circle cx="250.298" cy="39.361" r=".894"/>
		<path d="M205.074 202.176h25.252v.064h-25.252z"/>
		<circle cx="228.449" cy="215.274" r=".925"/>
		<path d="M222.549 95.452h-.535a15.365 15.365 0 0 1-.849 3.506h1.384c1.045 0 1.896-.787 1.896-1.753 0-.967-.851-1.753-1.896-1.753zM226.076 196.459l.1.712.438-.386 7.507-21.043a.872.872 0 0 1 .139-.25l-.632-.265a.887.887 0 0 1-.043.187l-7.509 21.045zM171.84 231.488c-.479 1.663-.756 3.563-.826 5.662l4.708-1.457c-1.242-1.689-2.544-3.1-3.882-4.205zM236.033 169.319a.228.228 0 0 0-.181-.001.32.32 0 0 0-.163.191l-.557 1.562.568.238.524-1.472c.073-.198-.019-.446-.191-.518zM221.453 255.958c.018-.158.035-.313.055-.464-.773.229-1.484.396-2.164.506h2.105l.004-.042z"/>
		<circle cx="95.031" cy="228.192" r="1.935"/>
		<path d="M4.524 213.322a1.07 1.07 0 0 0 .608-.414c.102-.15.137-.311.098-.451-.07-.254-.364-.425-.732-.425-.105 0-.212.015-.317.044L0 213.229v1.342l4.524-1.249z"/>
		<circle cx="3.219" cy="227.97" r=".833"/>
		<path d="M.842 229.078a2.606 2.606 0 0 1 .001-2.216L0 226.018v3.903l.842-.843zM.958 145.555c-1.206 4.67.776 6.533 4.855 8.337 1.277.565 2.212 1.534 2.783 2.884 6.797-4.046 11.002-11.398 11.002-19.296 0-11.281-8.423-20.844-19.599-22.264v13.721c.022-.029.042-.06.068-.086a.922.922 0 0 1 1.266-.028l1.143 1.094.375-1.536a.894.894 0 0 1 1.082-.658c.48.117.775.603.658 1.083l-.741 3.044a.894.894 0 0 1-.871.683.893.893 0 0 1-.619-.249l-2.264-2.167a.84.84 0 0 1-.096-.111v9.118l.339.638c.945 1.775 1.153 3.724.619 5.793zm11.827 4.174-1.387 2.81a.901.901 0 0 1-.804.5.894.894 0 0 1-.745-.398l-1.74-2.605a.89.89 0 0 1-.133-.674.888.888 0 0 1 .381-.569.895.895 0 0 1 1.243.247l.877 1.315.7-1.419a.895.895 0 0 1 1.608.793zm-2.8-8.416a.898.898 0 0 1-.886.907h-.01a.9.9 0 0 1-.896-.886l-.036-3.133a.9.9 0 0 1 .439-.781.908.908 0 0 1 .897-.01l2.73 1.535a.894.894 0 0 1 .342 1.22.898.898 0 0 1-1.22.342l-1.378-.774.018 1.58zm5.783 2.998-1.387 2.811a.9.9 0 0 1-.804.5.894.894 0 0 1-.745-.398l-1.74-2.606c-.133-.199-.18-.438-.133-.673a.888.888 0 0 1 .878-.72c.3 0 .579.148.746.398l.878 1.314.7-1.418a.89.89 0 0 1 1.199-.407.896.896 0 0 1 .408 1.199zm-1.561-9.211 1.388.76-.036-1.582a.895.895 0 0 1 .876-.916c.503 0 .904.393.915.876l.071 3.132a.898.898 0 0 1-1.325.807l-2.749-1.504a.897.897 0 0 1 .86-1.573zm-.853-3.17a.898.898 0 0 1-1.146.541l-1.488-.536.28 1.555a.898.898 0 0 1-.883 1.055.895.895 0 0 1-.881-.737l-.555-3.083a.901.901 0 0 1 .303-.844.909.909 0 0 1 .882-.158l2.948 1.062c.466.166.708.68.54 1.145zm-5.737-6.343 1.92-2.475a.89.89 0 0 1 .831-.338.9.9 0 0 1 .707.549l1.183 2.9a.897.897 0 0 1-1.659.676l-.597-1.463-.969 1.249a.889.889 0 0 1-.708.347.9.9 0 0 1-.889-.784.89.89 0 0 1 .181-.661zm-.967 19.267c.369 0 .706.232.837.576a.898.898 0 0 1-.518 1.157l-2.928 1.116a.897.897 0 0 1-.884-.142.894.894 0 0 1-.319-.836l.497-3.094a.89.89 0 0 1 1.029-.742.891.891 0 0 1 .741 1.025l-.25 1.563 1.478-.564a.865.865 0 0 1 .317-.059zm-3.244-22.2.28 1.556a.895.895 0 1 1-1.763.318l-.555-3.083a.898.898 0 0 1 1.185-1.002l2.948 1.061a.89.89 0 0 1 .507.462.898.898 0 0 1-1.115 1.225l-1.487-.537zm-1.71 12.082a.894.894 0 0 1 1.229.307l.813 1.355.767-1.382a.898.898 0 0 1 1.218-.349.897.897 0 0 1 .35 1.218l-1.52 2.739a.9.9 0 0 1-.768.461H3.77a.9.9 0 0 1-.768-.434l-1.613-2.687a.895.895 0 0 1 .307-1.228zM107.371 216.729c0 1.113.906 2.019 2.019 2.019a2.021 2.021 0 0 0 2.019-2.019c0-.773-.451-1.472-1.123-1.807v1.807a.897.897 0 0 1-1.792 0v-1.807a2.03 2.03 0 0 0-1.123 1.807zM3.436 210.423 0 197.967v13.403zM5.089 155.53C2.575 154.418.976 153.281 0 151.898v7.845a22.249 22.249 0 0 0 7.006-2.105c-.389-1.009-1.033-1.717-1.917-2.108zM109.265 256v-.877c0-.112.023-.219.061-.317h-1.134a.88.88 0 0 1 .061.317V256h1.012z"/>
		<circle cx="95.031" cy="240.812" r="1.935"/>
		<path d="M0 79.453h6.412v1.929H0zM132.83 253.014v-32.475H84.687v32.475h48.143zm-5.336-20.905a3.292 3.292 0 0 1-3.289 3.289 3.292 3.292 0 0 1-3.288-3.289.897.897 0 0 1 1.792 0c0 .826.671 1.497 1.496 1.497s1.497-.671 1.497-1.497c0-.493.402-.896.896-.896a.899.899 0 0 1 .896.896zm-5.162 6.807a3.966 3.966 0 0 1-3.962 3.963 3.966 3.966 0 0 1-3.962-3.963.897.897 0 0 1 1.792 0c0 1.197.974 2.17 2.17 2.17 1.197 0 2.17-.973 2.17-2.17a.897.897 0 0 1 1.792 0zm-35.747-1.873v-13.66c0-.494.402-.896.896-.896h37.729a.897.897 0 0 1 0 1.792H88.377v6.513a3.73 3.73 0 0 1 4.071 3.71 3.73 3.73 0 0 1-4.071 3.71v9.343h16.466c-2.706-2.03-4.397-5.542-4.397-9.305l.001-.135a3.75 3.75 0 0 1-2.831-3.613 3.73 3.73 0 0 1 3.726-3.727c.488 0 .96.094 1.408.278 1.819-2.448 4.542-3.901 7.342-3.901 4.298 0 8.116 3.318 9.283 8.068a.898.898 0 0 1-.871 1.11.893.893 0 0 1-.87-.682c-.97-3.948-4.072-6.705-7.543-6.705-2.229 0-4.412 1.178-5.895 3.165.564.67.871 1.509.871 2.393a3.704 3.704 0 0 1-2.83 3.613l-.001.135c0 4.703 2.96 8.602 6.789 9.221-1.832-1.82-2.909-4.182-2.992-6.629a.898.898 0 0 1 .865-.926h.038a.9.9 0 0 1 .889.865c.091 2.689 1.657 5.215 4.193 6.773h11.397c2.536-1.56 4.101-4.084 4.192-6.773a.888.888 0 0 1 .887-.866l.045.001a.885.885 0 0 1 .6.266v-16.799a.897.897 0 0 1 1.792 0v25.068a.896.896 0 0 1-.896.896h-6.289c-.032.004-.062.008-.091.008a.699.699 0 0 1-.092-.008H87.481a.897.897 0 0 1-.896-.896v-11.407zm4.72-8.852c0-2.055 1.671-3.727 3.726-3.727s3.727 1.672 3.727 3.727-1.672 3.727-3.727 3.727-3.726-1.672-3.726-3.727zm7.453 12.621c0 2.055-1.672 3.726-3.727 3.726s-3.726-1.671-3.726-3.726 1.671-3.726 3.726-3.726 3.727 1.671 3.727 3.726zm15.353-7.506a.897.897 0 0 1-.896.896h-3.292a.896.896 0 0 1 0-1.792h3.292c.494 0 .896.402.896.896z"/>
		<circle cx="101.341" cy="234.501" r="1.934"/>
		<path d="M129.141 247.555v-4.843c-.44 1.798-1.414 3.478-2.82 4.843h2.82zM88.722 232.567c-.115 0-.23.011-.345.032v3.805a1.936 1.936 0 0 0 2.279-1.903 1.936 1.936 0 0 0-1.934-1.934zM161.305 211.603a.924.924 0 0 0-.657.272.932.932 0 0 0 .64 1.589h.041a.926.926 0 0 0 .908-.912v-.02a.928.928 0 0 0-.932-.929zM102.664 165.754c-.521-1.977-1.823-3.545-3.116-3.768l-.48.105.074.065c1.056.943 1.868 2.337 2.286 3.923.426 1.616.38 3.287-.105 4.637l.486-.15c1.016-.83 1.376-2.837.855-4.812zM97.824 173.133zM36.683 231.021c.876-.841 1.464-1.935 1.569-2.96.044-.427-.028-.687-.076-.73a.33.33 0 0 0-.104-.016c-.345 0-1.061.462-1.967 1.75.202.662.395 1.318.578 1.956zM120.018 165.625l3.588 1.168a8.682 8.682 0 0 0 .479-2.188l-3.847-1.251a.894.894 0 0 1-.534-.479c.048.853-.053 1.679-.303 2.411a4.85 4.85 0 0 1-.181.458.9.9 0 0 1 .798-.119zM120.517 161.606c.093 0 .186.015.275.043l3.317 1.079a13.287 13.287 0 0 0-.415-2.517c-.22-.837-.516-1.64-.879-2.395l-2.356 2.575a.923.923 0 0 1-1.266.057c-.017-.016-.03-.034-.045-.051a7.856 7.856 0 0 1 .499 1.901c.006-.025.008-.05.016-.074a.898.898 0 0 1 .854-.618zM142.453 208.088l1.143 3.436-.68-3.557zM162.063 247.016h1.673v.618h-1.673zM122 199.049h2.593v-2.369a.897.897 0 0 1 1.792 0v2.369h2.593v-.932a.896.896 0 0 1 1.792 0v.932h2.594v-2.369a.897.897 0 0 1 1.792 0v2.369h2.593v-.932a.897.897 0 0 1 1.792 0v.932h2.593v-2.369a.897.897 0 0 1 1.792 0v2.369h2.593v-.932a.897.897 0 0 1 1.792 0v.932h2.592v-2.369a.897.897 0 0 1 1.792 0v2.369h4.106c-1.093-.204-1.923-1.164-1.923-2.316s.832-2.113 1.926-2.316H122v4.632zM254.051 115.054v21.972a9.103 9.103 0 0 1 1.949 2.161v-23.973l-.047-.006a22.974 22.974 0 0 0-1.902-.154zM151.971 247.016h1.672v.618h-1.672zM230.729 136.583l21.53.001-.001-21.531a22.393 22.393 0 0 0-21.529 21.53zm17.488-20.006a.92.92 0 0 1 1.268 0l1.68 1.68a.896.896 0 1 1-1.268 1.267l-1.68-1.68a.896.896 0 0 1 0-1.267zm-2.496.694a.918.918 0 0 1 1.267 0l4.175 4.176a.891.891 0 0 1 0 1.267c-.168.169-.394.262-.633.262s-.465-.093-.634-.262l-4.175-4.176a.888.888 0 0 1 0-1.267zm-2.256.937a.92.92 0 0 1 1.268 0l6.432 6.431a.894.894 0 0 1-.634 1.529.89.89 0 0 1-.634-.263l-6.432-6.431a.894.894 0 0 1 0-1.266zm-2.045 1.146a.918.918 0 0 1 1.267 0l8.476 8.476a.897.897 0 0 1-1.267 1.268l-8.476-8.477a.886.886 0 0 1-.263-.633c0-.24.093-.465.263-.634zm-1.861 1.331a.92.92 0 0 1 1.268 0l10.338 10.338a.897.897 0 0 1-1.268 1.267l-10.338-10.338c-.17-.169-.263-.394-.263-.633s.093-.465.263-.634zm-4.348 14.801a.892.892 0 0 1-1.268 0l-1.688-1.688a.888.888 0 0 1-.263-.633c0-.24.093-.465.263-.634a.916.916 0 0 1 1.267 0l1.688 1.688c.17.168.263.393.263.633a.879.879 0 0 1-.262.634zm3.193.001a.895.895 0 0 1-1.268 0l-4.187-4.187a.896.896 0 0 1 0-1.267.916.916 0 0 1 1.267 0l4.188 4.187a.897.897 0 0 1 0 1.267zm3.192.001c-.17.17-.395.263-.634.263s-.464-.093-.634-.263l-6.441-6.441c-.17-.169-.263-.395-.263-.634s.093-.464.263-.634a.92.92 0 0 1 1.268 0l6.441 6.442a.897.897 0 0 1 0 1.267zm3.191-.001a.895.895 0 0 1-1.268 0L235.032 127a.89.89 0 0 1 0-1.267.918.918 0 0 1 1.267 0l8.488 8.487a.897.897 0 0 1 0 1.267zm3.192.001a.891.891 0 0 1-.633.262.89.89 0 0 1-.634-.262l-10.345-10.345a.887.887 0 0 1-.263-.634c0-.239.093-.464.263-.633a.918.918 0 0 1 1.267 0l10.345 10.344a.895.895 0 0 1 0 1.268zm3.186-.006a.888.888 0 0 1-1.267 0l-12.022-12.021a.89.89 0 0 1 0-1.267.918.918 0 0 1 1.267 0l12.022 12.022c.35.349.35.918 0 1.266zM255.666 151.379c-.955-1.674-1.1-3.726-.442-6.273.833-3.229-.774-5.32-1.81-6.282l-10.693 18.524a22.542 22.542 0 0 0 13.232 2.402l.047-.006v-7.781l-.334-.584zM116.557 166.02c.494-.131.907-.597 1.15-1.311.287-.842.294-1.88.019-2.924-.275-1.043-.792-1.943-1.457-2.535-.561-.498-1.151-.703-1.658-.57l-.038.01-12.422 2.727c1.032.936 1.833 2.309 2.248 3.881.414 1.574.394 3.162-.042 4.484l12.2-3.762zM241.17 156.449l10.433-18.074h-20.874c.291 7.393 4.165 14.099 10.441 18.074zm-.455-4.513h-.207v.207a.896.896 0 0 1-1.792 0v-.207h-.207a.897.897 0 0 1 0-1.792h.207v-.205a.897.897 0 0 1 1.792 0v.205h.207a.897.897 0 0 1 0 1.792zm4.473-10.948h.207v-.205a.897.897 0 0 1 1.792 0v.205h.206a.897.897 0 0 1 0 1.792h-.206v.207a.897.897 0 0 1-1.792 0v-.207h-.207a.897.897 0 0 1 0-1.792zM244 144.713c.17.17.263.395.263.635a.89.89 0 0 1-.263.633l-.146.146.146.146a.891.891 0 0 1 0 1.268c-.169.169-.394.262-.633.262s-.465-.093-.634-.262l-.146-.146-.146.146a.918.918 0 0 1-1.268 0 .887.887 0 0 1-.263-.634c0-.238.093-.464.263-.633l.146-.146-.146-.146a.89.89 0 0 1-.263-.633c0-.24.093-.465.263-.635a.92.92 0 0 1 1.268 0l.146.146.146-.146a.917.917 0 0 1 1.267-.001zm-4.09-4.286h.206v-.206a.896.896 0 0 1 1.792 0v.206h.206a.897.897 0 0 1 0 1.792h-.206v.207a.897.897 0 0 1-1.792 0v-.207h-.206a.897.897 0 0 1 0-1.792zm-4.436 1.999a.897.897 0 0 1-1.792 0v-.207h-.207a.897.897 0 0 1 0-1.792h.207v-.206a.897.897 0 0 1 1.792 0v.206h.206a.897.897 0 0 1 0 1.792h-.206v.207zm1.703 5.114a.916.916 0 0 1-1.267 0 .896.896 0 0 1 0-1.267l.146-.146-.146-.146a.897.897 0 0 1 0-1.268.918.918 0 0 1 1.267 0l.146.146.146-.146a.918.918 0 0 1 1.267 0c.35.35.35.918 0 1.268l-.146.146.146.146a.891.891 0 0 1 0 1.268c-.168.169-.394.262-.633.262s-.465-.093-.633-.262l-.147-.147-.146.146zM141.879 247.016h1.672v.618h-1.672zM38.901 206.359a2.984 2.984 0 0 0 2.866 3.807 2.994 2.994 0 0 0 2.86-2.154l2.75-9.527-9.021-4.305v-.001l-1.923-.917-5.678 8.131c-.455.652-.629 1.443-.49 2.227s.575 1.465 1.228 1.921a2.984 2.984 0 0 0 4.148-.737l3.232-4.629a.896.896 0 0 1 1.596.762l-1.568 5.422zm.675-8.069-4.301 6.161a2.485 2.485 0 0 1-3.45.614 2.459 2.459 0 0 1-1.021-1.599c-.115-.651.03-1.31.409-1.853l4.301-6.16a.896.896 0 1 1 1.47 1.026l-4.301 6.16a.678.678 0 0 0-.113.513.681.681 0 0 0 .282.443.708.708 0 0 0 .955-.171l4.301-6.16a.896.896 0 1 1 1.468 1.026zm1.914.915a.9.9 0 0 1 1.107-.613.893.893 0 0 1 .614 1.11l-2.084 7.219a.69.69 0 0 0 .469.85.699.699 0 0 0 .849-.47l2.084-7.218a.9.9 0 0 1 1.109-.613c.476.139.75.636.613 1.11l-2.083 7.218a2.492 2.492 0 0 1-2.382 1.791 2.483 2.483 0 0 1-2.379-3.165l2.083-7.219z"/>
		<ellipse cx="191.883" cy="163.076" rx=".51" ry=".607"/>
		<path d="M43.433 192.544a.14.14 0 0 0-.123.076.135.135 0 0 0-.004.101.12.12 0 0 0 .066.072c.056.027.14.021.179-.061a.817.817 0 0 1 .073-.125.958.958 0 0 1-.135-.051.138.138 0 0 0-.056-.012zM182.496 195.975c-4.496 0-8.589 1.81-10.662 4.661h21.325c-2.073-2.852-6.167-4.661-10.663-4.661zM69.272 240.84l1.302 7.987 2.69-11.853-16.403 6.668 10.198 6.614-4.64-6.63a.892.892 0 0 1 .221-1.248.895.895 0 0 1 1.248.221l5.027 7.184-1.411-8.654a.898.898 0 0 1 .74-1.029.887.887 0 0 1 1.028.74zM193.865 225.143c.298.288 1.596.843 3.717.843 2.122 0 3.42-.555 3.717-.843-.297-.289-1.595-.844-3.717-.844-2.121 0-3.419.555-3.717.844zM174.447 194.206v1.932c.433-.233.885-.45 1.35-.645v-1.287h-1.35z"/>
		<ellipse cx="175.122" cy="171.121" rx=".51" ry=".607"/>
		<path d="M190.613 239.271a3.996 3.996 0 0 1 1.891-.467h12.048v-17.482h-12.048c-1.043 0-1.891.668-1.891 1.489v16.46zm11.127-9.398h-8.314a.897.897 0 0 1 0-1.792h8.314a.897.897 0 0 1 0 1.792zm-4.158-7.367c2.673 0 5.55.825 5.55 2.637 0 1.811-2.877 2.635-5.55 2.635-2.672 0-5.549-.824-5.549-2.635 0-1.812 2.877-2.637 5.549-2.637zM159.673 194.416h-2.003c1.094.203 1.926 1.164 1.926 2.316s-.83 2.112-1.923 2.316h2v-4.632zM208.018 170.697c-1.252-.636-2.59-.969-3.897-.969-1.845 0-3.509.651-4.812 1.885-2.27 2.149-3.012 5.702-1.955 9.182l10.664-10.098z"/>
		<circle cx="157.237" cy="196.732" r=".566"/>
		<path d="M202.662 178.617c.313.377.737.599 1.197.627a1.63 1.63 0 0 0 1.233-.463c.757-.717.825-1.961.153-2.771a1.005 1.005 0 0 1-.092-.135l-2.704 2.561c.079.05.153.107.213.181zM17.188 223.224l2.098 2.363c.206.231.277.56.187.856-1.953 6.394-3.958 14.121-3.725 16.635.403 4.365 3.137 7.533 6.5 7.533h8.286c3.856 0 5.891-3.926 6.509-7.6.158-.938.087-3.092-1.147-8.026a.891.891 0 0 1 .469-1.02c2.195-1.095 3.89-3.429 4.121-5.676.152-1.479-.398-2.616-1.473-3.041a2.544 2.544 0 0 0-.935-.185c-1.242 0-2.37.975-3.098 1.793a.91.91 0 0 1-.988.242.902.902 0 0 1-.578-.838v-3.038H17.188zm6.162 11.42-1.77 3.626c-.149.306-.465.504-.805.504s-.656-.198-.805-.504l-1.77-3.626a.895.895 0 0 1 .806-1.29c.34 0 .656.197.806.503l.964 1.977.964-1.977a.888.888 0 0 1 .806-.503.889.889 0 0 1 .847.605.89.89 0 0 1-.043.685zm-.559-2.593-1.77-3.625a.89.89 0 0 1-.042-.685.887.887 0 0 1 .455-.514.875.875 0 0 1 .393-.091c.345 0 .654.192.805.503l.964 1.976.964-1.976a.89.89 0 0 1 .806-.503c.137 0 .269.03.393.091a.886.886 0 0 1 .454.514.89.89 0 0 1-.042.685l-1.77 3.625a.9.9 0 0 1-.805.504.9.9 0 0 1-.805-.504zm6.201 2.593-1.77 3.626c-.149.306-.465.504-.805.504s-.656-.198-.805-.504l-1.77-3.626c-.105-.215-.12-.458-.042-.685a.892.892 0 0 1 .848-.605.9.9 0 0 1 .805.503l.965 1.977.964-1.977a.89.89 0 0 1 .805-.503.889.889 0 0 1 .848.605.904.904 0 0 1-.043.685zm-.559-2.593-1.77-3.625a.89.89 0 0 1-.042-.685.889.889 0 0 1 .847-.605c.34 0 .656.197.806.503l.964 1.976.964-1.976a.89.89 0 0 1 .806-.503c.137 0 .27.03.393.091a.886.886 0 0 1 .454.514.89.89 0 0 1-.042.685l-1.77 3.625a.9.9 0 0 1-.805.504.901.901 0 0 1-.805-.504zm5.942-3.627c.867-1.323 2.213-2.901 3.699-2.901.266 0 .526.05.772.146.888.352 1.321 1.29 1.189 2.575-.197 1.92-1.562 3.953-3.396 5.057a.896.896 0 0 1-1.326-.531 134.308 134.308 0 0 0-1.045-3.593.891.891 0 0 1 .107-.753zm-.547 4.93a.896.896 0 0 1 .806 1.29l-1.77 3.626a.901.901 0 0 1-.805.504.901.901 0 0 1-.805-.504l-1.77-3.626c-.105-.215-.12-.458-.042-.685a.892.892 0 0 1 .847-.605.9.9 0 0 1 .805.503l.965 1.977.964-1.977a.89.89 0 0 1 .805-.503zM49.245 180.492l-9.148 12.533 1.862.889a1.914 1.914 0 0 1-.266-2.066 1.941 1.941 0 0 1 1.742-1.097 1.9 1.9 0 0 1 .824.187.891.891 0 0 1 .459.509.893.893 0 0 1-.108.811.91.91 0 0 1 .595.563.893.893 0 0 1-.037.686c-.317.664-1 1.094-1.739 1.094l-.038-.002 1.865.889 3.989-14.996zM238.693 230.34h2.991v-4.221h-2.991c-1.057 0-1.916.947-1.916 2.111 0 1.163.86 2.11 1.916 2.11zM16.821 207.766c2.554 0 4.632-2.078 4.632-4.632s-2.078-4.632-4.632-4.632-4.632 2.078-4.632 4.632 2.079 4.632 4.632 4.632zm-2.457-5.528h1.561v-1.561a.897.897 0 0 1 1.792 0v1.561h1.561a.897.897 0 0 1 0 1.792h-1.561v1.562a.897.897 0 0 1-1.792 0v-1.562h-1.561a.896.896 0 0 1 0-1.792zM251.496 178.025l4.504-1.243v-1.394zM118.908 159.854l-.004-.025a.885.885 0 0 1 .234-.645l2.732-2.987a8.665 8.665 0 0 0-1.495-1.666l-2.546 2.784a.912.912 0 0 1-.779.273c.139.099.275.205.409.323.577.513 1.07 1.179 1.449 1.943z"/>
		<circle cx="244.972" cy="251.153" r="1.378"/>
		<path d="M21.658 188.777c6.311 0 11.446-5.135 11.446-11.447 0-6.312-5.135-11.447-11.446-11.447-6.313 0-11.448 5.136-11.448 11.447 0 6.313 5.135 11.447 11.448 11.447zm-10.106-12.341h7.221c.055-.176.125-.346.211-.51l-5.106-5.106a.893.893 0 0 1 0-1.267.916.916 0 0 1 1.267 0l5.107 5.106c.163-.087.333-.157.51-.212v-7.222a.897.897 0 0 1 1.792 0v7.222c.176.055.346.125.508.211l5.106-5.105a.916.916 0 0 1 1.267 0 .897.897 0 0 1 0 1.267l-5.106 5.106c.086.163.157.334.211.51h7.222a.897.897 0 0 1 0 1.792H24.54a2.983 2.983 0 0 1-.211.509l5.106 5.105a.899.899 0 0 1 0 1.268.916.916 0 0 1-1.267 0l-5.106-5.105a3.041 3.041 0 0 1-.508.211v7.221a.897.897 0 0 1-1.792 0v-7.221a3.017 3.017 0 0 1-.509-.211l-5.107 5.105a.914.914 0 0 1-1.267 0 .897.897 0 0 1 0-1.267l5.106-5.106a2.904 2.904 0 0 1-.211-.509h-7.221a.896.896 0 0 1-.001-1.792zM62.051 239.596l-1.316-3.24 4.692-1.906 1.316 3.24zM251.971 179.753l4.029-.035v-1.077zM67.078 233.78l1.316 3.24 4.285-1.743-3.352-2.412zM249.135 75.731H256v1.929h-6.865zM249.135 68.289H256v1.929h-6.865z"/>
		<path d="M254.977 233.479c-.17.169-.395.262-.634.262s-.464-.093-.634-.262a.899.899 0 0 1 0-1.268l2.291-2.29v-3.903l-2.289-2.289a.897.897 0 0 1 0-1.268.917.917 0 0 1 1.266 0l1.023 1.023v-7.055l-5.619 1.549c-.26.072-.527.108-.793.108-1.185 0-2.174-.699-2.461-1.741-.18-.653-.059-1.34.343-1.932.077-.115.167-.227.268-.332l-5.71-20.703c-.832-.235-1.467-.842-1.684-1.627-.356-1.297.521-2.674 1.958-3.069l1.313-.362c-.171-.891.032-1.813.586-2.623.41-.602.983-1.09 1.669-1.428l-.164-.594-.32.088a.907.907 0 0 1-.681-.084.906.906 0 0 1-.421-.541l-1.125-4.078a.89.89 0 0 1 .084-.681.904.904 0 0 1 .541-.422l2.367-.653a.899.899 0 0 1 1.102.625l.119.434L256 173.31v-8.883c-.947.1-1.904.15-2.847.15-14.941 0-27.097-12.156-27.097-27.1a.896.896 0 0 1 1.792 0c0 13.955 11.353 25.307 25.306 25.307.925 0 1.868-.053 2.804-.156l.043-.004v-1.078a24.2 24.2 0 0 1-14.864-3.025.72.72 0 0 1-.101-.049c-.04-.022-.075-.048-.11-.074-7.408-4.348-12.008-12.359-12.008-20.919 0-13.364 10.873-24.237 24.236-24.237.942 0 1.899.057 2.846.168v-4.937a.891.891 0 0 1-.787.478h-4.117a.897.897 0 0 1-.896-.896v-2.864c0-.494.402-.896.896-.896h4.117c.342 0 .637.195.787.477V86.895h-7.761a.897.897 0 0 1-.896-.896v-3.721c0-.494.401-.896.896-.896H256v-1.929h-7.761a.897.897 0 0 1-.896-.896v-3.721c0-.494.401-.896.896-.896H256v-1.93h-7.761a.897.897 0 0 1-.896-.896v-3.721c0-.494.401-.896.896-.896H256V53.818h-.018a.897.897 0 0 1-.896-.896.936.936 0 0 0-1.871 0 .897.897 0 0 1-1.792 0v-7.02a.937.937 0 0 0-1.871 0v12.234c0 .378-.24.717-.596.844a.906.906 0 0 1-.994-.277l-3.14-3.842a.934.934 0 0 0-.726-.343.929.929 0 0 0-.591.21.937.937 0 0 0-.132 1.316l5.236 6.41a.886.886 0 0 1 .197.657.886.886 0 0 1-.324.604.89.89 0 0 1-1.26-.128l-5.236-6.409a2.73 2.73 0 0 1 .386-3.838 2.735 2.735 0 0 1 3.838.386l1.549 1.896v-9.721c0-1.504 1.224-2.728 2.728-2.728s2.728 1.224 2.728 2.728v4.457a2.735 2.735 0 0 1 2.766.541l.018-.02V0h-3.016v4.042a.897.897 0 0 1-1.792 0V0h-14.199l-.184.236c-.677.87-1.684 1.25-1.727 1.266a.902.902 0 0 1-1.153-.526.892.892 0 0 1 .236-.975h-10.473l-.048.132c-.15.409-.324.794-.518 1.146-.021.258-.04.531-.058.819-.084 1.347-.223 3.594-.182 4.797.391-.699.977-2.077 1.454-3.71a.895.895 0 0 1 .823-.644h.029c.373 0 .712.231.844.575.008.02.229.541.869.888.35-.879.904-1.64 1.559-2.129.717-.536 1.516-.717 2.293-.522.817.204 1.303.955 1.207 1.868-.143 1.358-1.502 2.806-3.529 2.878l-.116.003c.015.433.108.976.444 1.248.301.242.84.276 1.506.102 1.66-.433 2.969-2.48 2.982-2.501a.89.89 0 0 1 .76-.42c.15 0 .3.039.432.111l.02.011c.111-1.046.881-1.861 1.991-2.092a2.422 2.422 0 0 1 2.38.818c.373.441.622 1.018.721 1.658a18.4 18.4 0 0 0 1.665-.723.917.917 0 0 1 1.074.21.895.895 0 0 1 .069 1.092c-2.012 2.976-2.715 5.656-2.723 5.682a.895.895 0 1 1-1.736-.442c.018-.067.334-1.29 1.142-3.014-.7 1.284-2.033 2.387-3.297 2.675-.894.204-1.742 0-2.349-.564-.461-.43-.738-.996-.825-1.688-.608.448-1.229.757-1.854.919a4.825 4.825 0 0 1-1.216.168c-.92 0-1.523-.332-1.867-.61-.535-.431-1.155-1.29-1.112-2.939a3.955 3.955 0 0 1-.976-.542c-.758 2.13-1.508 3.385-2.233 3.731a1.808 1.808 0 0 1-.786.203 1.22 1.22 0 0 1-.694-.21c-.745-.502-.871-1.369-.646-5.469a9.309 9.309 0 0 1-1.269.842c.124 1.229-.074 2.652-.533 3.781-.682 1.678-1.91 2.574-3.288 2.401-1.065-.133-1.897-.708-2.439-1.679-.494.909-1.114 1.583-1.85 2.01-1.108.642-2.239.764-3.231.353-1.156-.48-2.074-1.647-2.68-3.393-.965.913-1.797 1.532-1.837 1.562a.892.892 0 0 1-.533.176.896.896 0 0 1-.534-1.615c.053-.04 1.273-.96 2.392-2.145-.343-2-.144-3.708.54-4.596.164-.213.357-.376.567-.486a3.907 3.907 0 0 1-.751.079 2.816 2.816 0 0 1-1.503-.41 2.092 2.092 0 0 1-.104-.07L203.676 0h-14.554c2.159 2.2 3.942 5.337 5.04 8.887.305.983.553 1.993.737 3.001a.9.9 0 0 1-.845 1.149h-.4v-.084a.886.886 0 0 1-.272-.196l-7.232-7.641-9.361 2.897-1.65 10.392a.905.905 0 0 1-.886.756.896.896 0 0 1-.816-.527 25.673 25.673 0 0 1-1.129-2.981c-1.741-5.627-1.417-11.313.815-14.567L172.787 0h-29.915l-.001.016c-.05 1.245-.152 2.223-.305 2.907-.602 2.708-3.416 4.266-8.605 4.762-3.816.365-4.869 3.655-5.157 5.451h1.46c.494 0 .896.402.896.896v13.694a.897.897 0 0 1-.896.896H98.23a.897.897 0 0 1-.896-.896V14.031c0-.494.402-.896.896-.896h28.774c.292-1.941 1.547-6.733 6.785-7.235 6.415-.614 6.876-2.686 7.027-3.367.126-.569.214-1.422.261-2.534h-30.021v2.829a.89.89 0 0 1-.248.615c3.684.34 6.936 1.586 8.945 3.482a.89.89 0 0 1 .218.982.892.892 0 0 1-.833.565H98.377a.892.892 0 0 1-.833-.565.889.889 0 0 1 .218-.982c2.009-1.896 5.261-3.142 8.945-3.482a.892.892 0 0 1-.247-.615V0H0v50.894a2.71 2.71 0 0 1 3.645.008 2.71 2.71 0 0 1 1.832-.707 2.73 2.73 0 0 1 2.727 2.727l-.001 14.441.001.03a.897.897 0 0 1-.896.896H0v1.929h7.308c.494 0 .896.402.896.896v3.721a.897.897 0 0 1-.896.896H0v1.929h7.308c.494 0 .896.402.896.896v3.721a.897.897 0 0 1-.896.896H0v1.929h7.308a.897.897 0 0 1 0 1.792H0v26.515l.045.005c12.169 1.453 21.346 11.798 21.346 24.064 0 8.921-4.893 17.097-12.771 21.345a.96.96 0 0 1-.187.102 23.98 23.98 0 0 1-8.388 2.617l-.045.007v1.074c12.807-1.439 22.46-12.241 22.46-25.145a.897.897 0 0 1 1.792 0c0 6.723-2.49 13.176-7.01 18.168-4.487 4.957-10.597 8.074-17.202 8.777l-.04.005v8.883l.366-.214a.9.9 0 0 1 1.226.32.893.893 0 0 1-.321 1.226L0 175.388v1.395l3.055-.843a.898.898 0 0 1 .477 1.728L0 178.641v1.077l2.665-.022a.9.9 0 0 1 .904.887.892.892 0 0 1-.257.637.887.887 0 0 1-.631.268L0 181.51v9.716l5.275 19.126c.833.236 1.467.844 1.683 1.629.18.654.059 1.34-.342 1.933a2.86 2.86 0 0 1-1.615 1.137L0 216.43v7.055l2.11 2.109a2.645 2.645 0 0 1 2.218-.001l3.132-3.132a.918.918 0 0 1 1.267 0 .895.895 0 0 1 0 1.268l-3.13 3.131a2.604 2.604 0 0 1-.001 2.218l3.132 3.133a.894.894 0 0 1 0 1.268c-.169.169-.395.262-.634.262s-.464-.093-.633-.262l-3.131-3.133a2.638 2.638 0 0 1-2.22 0L0 232.455V256h106.46v-.877c0-.112.023-.219.061-.317h-22.73a.896.896 0 0 1-.896-.896v-34.268c0-.494.402-.896.896-.896h22.368a3.78 3.78 0 0 1-.58-2.019 3.815 3.815 0 0 1 3.811-3.811 3.815 3.815 0 0 1 3.811 3.811c0 .723-.203 1.418-.58 2.019h21.106c.494 0 .896.401.896.896v34.268a.896.896 0 0 1-.896.896h-22.73a.88.88 0 0 1 .061.317V256h30.021v-.016c.049-1.187.031-2.23.031-2.24a.897.897 0 0 1 .879-.914c.502 0 .903.394.912.879.002.043.021 1.066-.028 2.291h29.915l-1.498-4.839c-2.434-7.864-2.75-15.763-.851-21.169l-1.991-6.432a1.302 1.302 0 0 1-.646-.769 1.3 1.3 0 0 1 1.238-1.681c.572 0 1.07.367 1.238.915a1.282 1.282 0 0 1-.114 1.022l1.986 6.412c4.578 3.358 8.757 9.984 11.199 17.767a.82.82 0 0 1 .076.175l1.836 5.93c1.23.475 2.437 1.279 3.586 2.393l.285.275h14.621a3.104 3.104 0 0 1-.781-1.36.89.89 0 0 1 .875-1.098c.414 0 .771.282.869.687.059.233.279.784 1.041.784.152 0 .322-.023.504-.066.602-.145.799-.912.744-1.385-.025-.207-.098-.345-.132-.363-.383 0-.532.328-.548.365a.901.901 0 0 1-1.156.508.899.899 0 0 1-.516-1.157c.023-.061.596-1.509 2.217-1.509 1.006 0 1.775.782 1.914 1.944.1.846-.145 1.926-.875 2.65h7.599c-2.907-.594-3.528-3.028-3.435-4.299a.897.897 0 0 1 1.787.129c-.023.361-.018 2.191 2.371 2.475a9.69 9.69 0 0 0 1.12.065c1.341 0 2.697-.261 4.503-.868.453-1.842 1.045-2.097 1.569-2.097.487 0 .89.396.896.883 0 .001.002.113-.004.309l.234-.091 1.092-.42c1.814-.689 4.465-1.51 6.784-1.51 2.298 0 3.851.791 4.618 2.354.443.906.508 1.773.188 2.576-.066.17-.154.334-.257.494h14.218v-14.17l-1.041 1.962a.894.894 0 0 1-1.211.372.896.896 0 0 1-.372-1.212l2.761-5.196a.896.896 0 0 1 .092-.123l.029-.031a.89.89 0 0 1 .159-.129l.046-.025a.953.953 0 0 1 .158-.068c.018-.006.036-.012.057-.017a.835.835 0 0 1 .438.001c.018.004.037.01.057.016a.961.961 0 0 1 .367.227l.035.041a.862.862 0 0 1 .078.106l.039.064 2.723 5.134a.899.899 0 0 1-.791 1.316.892.892 0 0 1-.791-.476l-1.041-1.961V256H256v-23.545l-1.023 1.024zm-6.308-210.294 2.729-3.311a.893.893 0 0 1 1.382 0l2.728 3.311a.886.886 0 0 1 .2.656.894.894 0 0 1-1.582.484l-2.036-2.472-2.036 2.472a.896.896 0 0 1-1.385-1.14zm.001-4.301 2.728-3.31a.893.893 0 0 1 1.382 0l2.728 3.31a.897.897 0 0 1-.691 1.466.891.891 0 0 1-.691-.326l-2.036-2.471-2.037 2.471a.894.894 0 0 1-1.26.121.894.894 0 0 1-.123-1.261zm0-8.6 2.728-3.31a.894.894 0 0 1 1.381 0l2.729 3.31a.895.895 0 1 1-1.382 1.139l-2.036-2.471-2.037 2.471a.894.894 0 0 1-1.582-.485.886.886 0 0 1 .199-.654zm0 4.3 2.728-3.31a.893.893 0 0 1 1.382 0l2.728 3.31a.887.887 0 0 1 .2.656.9.9 0 0 1-1.582.483l-2.036-2.471-2.037 2.471a.897.897 0 0 1-1.383-1.139zm0 12.9 2.728-3.31a.894.894 0 0 1 1.381 0l2.729 3.31a.895.895 0 1 1-1.382 1.139l-2.036-2.471-2.037 2.471a.892.892 0 0 1-1.26.121c-.186-.152-.299-.368-.322-.606s.047-.469.199-.654zm1.628 9.191a2.69 2.69 0 0 1 2.687 2.687c0 1.481-1.205 2.686-2.687 2.686s-2.687-1.205-2.687-2.686a2.69 2.69 0 0 1 2.687-2.687zm-18.402 138.137c.07-.199.21-.36.384-.465a.886.886 0 0 1 .492-1.126.892.892 0 0 1 .442-1.238.892.892 0 0 1 .16-1.052.902.902 0 0 1 .047-.395l.582-1.629c.199-.561.6-.996 1.128-1.229a2.01 2.01 0 0 1 1.595-.014c1.046.436 1.58 1.681 1.189 2.773l-.582 1.632a.875.875 0 0 1-.214.333.903.903 0 0 1-.063.443.898.898 0 0 1-.479.477.889.889 0 0 1-.441 1.239.89.89 0 0 1-.332 1.182.888.888 0 0 1 .005.6l-7.576 21.238a.887.887 0 0 1-.259.393l-1.863 1.644a.893.893 0 0 1-.905.167.89.89 0 0 1-.575-.716l-.351-2.515a.897.897 0 0 1 .032-.484l7.584-21.258zm-.673 25.572c.494 0 .896.401.896.896v1.857a.897.897 0 0 1-.896.896h-27.045a.896.896 0 0 1-.896-.896v-1.857c0-.494.401-.896.896-.896h27.045zm-26.854-15.083a.886.886 0 0 1 .568-.383.908.908 0 0 1 1.057.699l1.985 9.73a.886.886 0 0 1-.131.672.888.888 0 0 1-.748.403.9.9 0 0 1-.878-.717l-1.984-9.73a.888.888 0 0 1 .131-.674zm9.279-30.887 2.729-3.311a.893.893 0 0 1 1.381 0l2.728 3.311a.898.898 0 0 1-.121 1.262.904.904 0 0 1-.57.204.891.891 0 0 1-.691-.326l-2.036-2.472-2.036 2.472a.894.894 0 0 1-1.261.121.886.886 0 0 1-.322-.605.884.884 0 0 1 .199-.656zm-.201-3.644a.897.897 0 0 1 .201-.656l2.729-3.31a.893.893 0 0 1 1.381 0l2.728 3.31a.898.898 0 0 1-.691 1.467.891.891 0 0 1-.691-.326l-2.036-2.472-2.036 2.472a.891.891 0 0 1-1.261.121.895.895 0 0 1-.324-.606zm6.918 9.206a.898.898 0 0 1-1.261-.122l-2.036-2.471-2.036 2.471a.893.893 0 0 1-1.261.122.896.896 0 0 1-.121-1.261l2.728-3.311c.171-.208.423-.326.691-.326s.521.118.691.326l2.728 3.311a.898.898 0 0 1-.123 1.261zm-6.717 3.038 2.729-3.31a.89.89 0 0 1 1.381.001l2.728 3.309a.887.887 0 0 1 .2.656.894.894 0 0 1-1.582.482l-2.036-2.47-2.036 2.472a.897.897 0 0 1-1.384-1.14zm6.716-15.939a.891.891 0 0 1-.569.204.89.89 0 0 1-.691-.326l-2.036-2.471-2.036 2.471a.897.897 0 0 1-1.583-.483.894.894 0 0 1 .201-.656l2.729-3.31a.893.893 0 0 1 1.381 0l2.728 3.311a.897.897 0 0 1-.124 1.26zm-.149-23.382a.892.892 0 0 1-1.211-.373l-1.041-1.96v18.211a.896.896 0 0 1-1.792 0V121.36l-1.041 1.961a.894.894 0 0 1-1.211.372.896.896 0 0 1-.372-1.211l2.759-5.193a.87.87 0 0 1 .094-.125l.029-.032a.937.937 0 0 1 .16-.129l.048-.027a.98.98 0 0 1 .212-.084.83.83 0 0 1 .437 0l.052.016a.866.866 0 0 1 .203.092.943.943 0 0 1 .17.137l.033.04a.8.8 0 0 1 .082.111l.033.054 2.727 5.141a.896.896 0 0 1-.371 1.21zm.574 53.226a.894.894 0 0 1 .664 1.079.893.893 0 0 1-1.08.664l-9.18-2.185a.894.894 0 0 1-.664-1.079.894.894 0 0 1 1.08-.664l9.18 2.185zm-1.676 19.173a.897.897 0 0 1-1.288 1.249l-.777-.803-.803.779a.916.916 0 0 1-1.266-.019.897.897 0 0 1 .018-1.267l.803-.779-.779-.803a.896.896 0 0 1 .02-1.267.917.917 0 0 1 1.267.019l.778.803.802-.779a.918.918 0 0 1 1.267.02.898.898 0 0 1-.018 1.267l-.803.778.779.802zm-4.818-13.644a.884.884 0 0 1-.537-.18l-2.233-1.68a.895.895 0 1 1 1.077-1.432l2.232 1.68a.902.902 0 0 1 .35.591.887.887 0 0 1-.172.664.902.902 0 0 1-.717.357zm-1.512 3.969c.143.192.201.429.166.665s-.16.445-.353.588a.89.89 0 0 1-.533.177.903.903 0 0 1-.72-.362l-2.563-3.454a.893.893 0 0 1 .186-1.253.896.896 0 0 1 1.254.185l2.563 3.454zm12.949 28.857c0-.409.093-.812.271-1.179l-3.324-3.323c-.169-.169-.262-.395-.262-.634s.093-.465.262-.634a.919.919 0 0 1 1.268.001l3.322 3.323a2.75 2.75 0 0 1 2.359-.001l3.322-3.322a.917.917 0 0 1 1.266 0c.35.35.35.918 0 1.268l-3.321 3.321a2.696 2.696 0 0 1 0 2.359l3.322 3.324a.888.888 0 0 1 0 1.267.889.889 0 0 1-.633.263.888.888 0 0 1-.634-.264l-3.321-3.322a2.735 2.735 0 0 1-2.359 0l-3.324 3.323a.915.915 0 0 1-1.266 0 .896.896 0 0 1 0-1.267l3.324-3.324a2.686 2.686 0 0 1-.272-1.179zm-3.183-114.524h-.681c2.379 1.087 2.933 2.359 2.933 3.308 0 3.347-6.692 5.099-13.303 5.099s-13.303-1.751-13.303-5.099c0-1.097.74-2.627 4.191-3.803-1.001-2.046-1.528-4.38-1.528-6.779v-.03c0-2.137 2.603-3.817 6.962-4.494a.902.902 0 0 1 1.022.748.898.898 0 0 1-.747 1.023c-3.537.549-5.445 1.813-5.445 2.723 0 1.214 3.447 2.977 8.848 2.977s8.848-1.763 8.848-2.977c0-.91-1.909-2.174-5.445-2.723a.898.898 0 0 1-.748-1.022.902.902 0 0 1 1.022-.749c4.36.677 6.962 2.357 6.962 4.494v.031l-.001.185h.413c2.033 0 3.688 1.59 3.688 3.544-.001 1.953-1.655 3.544-3.688 3.544zM173.1 128.566c0-7.135 4.164-12.803 10.867-14.792a.896.896 0 1 1 .509 1.718c-5.912 1.755-9.584 6.765-9.584 13.075 0 4.143 1.599 8 4.502 10.863a.9.9 0 0 1 .266.637v6.107l14.839 6.012v-6.432c0-.494.401-.896.896-.896h2.729a5.257 5.257 0 0 0 5.033-3.769c-3.712-.13-4.137-2.451-4.154-2.553a.898.898 0 0 1 .883-1.041c.434 0 .806.31.883.735.001 0 .287 1.037 2.6 1.07l.001-4.016c0-.39.249-.732.618-.852l3.153-1.026-3.659-4.762a.911.911 0 0 1-.186-.552c.021-3.405-.085-6.654-1.584-8.986-1.612-2.508-4.748-3.837-9.867-4.183a.892.892 0 0 1-.834-.954.896.896 0 0 1 .951-.833c12.121.818 13.146 7.112 13.128 14.66l4.244 5.524a.898.898 0 0 1-.433 1.399l-3.739 1.217v3.678a7.044 7.044 0 0 1-7.037 7.036h-1.832v6.857a.47.47 0 0 1-.006.081c-.002.03-.004.063-.011.096-.007.037-.018.072-.028.105-.004.012-.008.029-.015.047l-.03.068a.921.921 0 0 1-.1.158l-.035.043a.856.856 0 0 1-.174.154l-.031.02a.972.972 0 0 1-.41.129l-.058.003-16.63-.001a.896.896 0 0 1-.896-.896v-13.079c-3.076-3.169-4.769-7.378-4.769-11.869zm-26.427 24.485v26.719a.896.896 0 0 1-1.792 0v-26.719l-14.146 27.134a.89.89 0 0 1-1.209.379.884.884 0 0 1-.439-.525.89.89 0 0 1 .06-.684l15.134-29.025h-10.516a.897.897 0 0 1-.896-.896v-2.916h-7.47a.896.896 0 0 1 0-1.792h2.537v-20.805c0-.494.402-.896.896-.896h7.211l8.839-14.542v-5.542a.897.897 0 0 1 1.792 0v5.539l8.84 14.545h7.213c.494 0 .896.402.896.896v20.805h2.535a.896.896 0 0 1 0 1.792h-7.471v2.916a.896.896 0 0 1-.896.896h-10.515l15.133 29.025a.9.9 0 0 1 .061.684.902.902 0 0 1-.855.627.895.895 0 0 1-.795-.481l-14.147-27.134zm9.22 31.988a.884.884 0 0 1-.796.489.896.896 0 0 1-.854-.62c-.389-1.199-1.498-2.005-2.759-2.005s-2.37.806-2.76 2.006a.893.893 0 0 1-1.13.575.896.896 0 0 1-.574-1.129c.631-1.941 2.424-3.244 4.464-3.244s3.834 1.304 4.464 3.244a.894.894 0 0 1-.055.684zm-11.934.445a.896.896 0 0 1-1.129-.575 2.894 2.894 0 0 0-2.76-2.006 2.894 2.894 0 0 0-2.759 2.005.894.894 0 0 1-1.65.131.894.894 0 0 1-.054-.684c.629-1.94 2.424-3.244 4.463-3.244s3.834 1.303 4.465 3.244a.896.896 0 0 1-.576 1.129zm-11.412 0a.895.895 0 0 1-1.129-.575 2.896 2.896 0 0 0-2.76-2.006 2.894 2.894 0 0 0-2.76 2.005.894.894 0 0 1-1.129.576.898.898 0 0 1-.576-1.129 4.681 4.681 0 0 1 4.465-3.244 4.682 4.682 0 0 1 4.464 3.244.898.898 0 0 1-.575 1.129zm-26.032-35.941a.893.893 0 0 1-.854 1.166.89.89 0 0 1-.521-.167l-4.262-3.047-4.263 3.047a.91.91 0 0 1-1.048-.005.893.893 0 0 1-.328-.994l1.58-4.996-4.214-3.111a.896.896 0 0 1 .525-1.617l5.239-.041 1.659-4.971a.896.896 0 0 1 1.7 0l1.657 4.971 5.239.041a.894.894 0 0 1 .525 1.616l-4.215 3.112 1.581 4.996zm-11.247 18.16c.084.32.118.647.1.969l2.274-.6a.896.896 0 0 1 .457 1.733l-4.449 1.173c-.176.047-.359.07-.544.07-.682 0-1.328-.31-1.813-.86-.642.309-2.159 1.273-3.399 3.869-1.313 2.754-.894 6.377-.31 8.932.515 2.248 1.034 6.512-1.27 9.796-1.122 1.599-2.937 2.554-4.856 2.557h-.008c-1.574 0-2.979-.661-3.76-1.767-1.726-2.446-.75-4.937.327-6.014.566-.566 1.328-.893 2.089-.893.181 0 .36.02.534.056.856.181 1.52.776 1.868 1.679.663 1.716-.63 3.131-1.407 3.639a.892.892 0 0 1-1.24-.259.898.898 0 0 1 .256-1.239c.041-.027 1.028-.696.719-1.496-.125-.325-.316-.518-.566-.57-.313-.066-.71.076-.985.351-.648.648-1.218 2.173-.13 3.714.445.631 1.303 1.008 2.296 1.008a4.172 4.172 0 0 0 3.396-1.793c1.905-2.718 1.438-6.409.99-8.367-.647-2.833-1.096-6.885.439-10.104 1.465-3.068 3.312-4.283 4.277-4.732-.18-1.309.504-2.547 1.628-2.883l.003-.002.056-.016.005-.001 4.45-1.171a.897.897 0 1 1 .456 1.733l-2.271.598c.172.267.304.568.388.89zm-.386 26.457a.888.888 0 0 1 1.148-.539c.224.08.404.244.506.461s.114.459.033.685l-2.965 8.243a.897.897 0 0 1-1.653.078.892.892 0 0 1-.033-.686l2.964-8.242zm-4.746 11.805a.887.887 0 0 1-.457.512.86.86 0 0 1-.389.09.902.902 0 0 1-.807-.506l-2.097-4.339a.89.89 0 0 1-.039-.685.889.889 0 0 1 .456-.512.881.881 0 0 1 .39-.09c.341 0 .658.199.807.506l2.097 4.34a.888.888 0 0 1 .039.684zm-6.53-1.733-2.748 3.18a.896.896 0 1 1-1.357-1.171l2.748-3.181a.895.895 0 1 1 1.357 1.172zm-11.14-32.427c.656 2.021.548 4.115-.309 5.917-1.204 2.529-3.855 5.344-6.833 5.545l-.061.003a.9.9 0 0 1-.732-.38c-1.716-2.431-1.366-6.327-.133-8.919.844-1.775 2.392-3.162 4.372-3.924.71-3.318 2.921-9.094 5.811-15.168 4.358-9.162 10.128-15.635 10.187-15.699a.915.915 0 0 1 1.051-.21.9.9 0 0 1 .5.948c-.014.086-1.407 8.672-5.753 17.809-2.888 6.072-5.973 11.431-8.1 14.078zm4.015 33.783a.886.886 0 0 1-.203.654.882.882 0 0 1-.689.324.893.893 0 0 1-.892-.813l-.47-5.062a.896.896 0 1 1 1.784-.165l.47 5.062zm-7.822-11.163a.898.898 0 0 1-1.237-.276.891.891 0 0 1-.118-.676.89.89 0 0 1 .394-.561l3.304-2.098a.895.895 0 0 1 1.357.942l-1.651 7.881a.9.9 0 0 1-1.061.692.892.892 0 0 1-.692-1.061l1.216-5.803-1.512.96zM47.64 122.841a.892.892 0 0 1 .019-1.267.917.917 0 0 1 1.267.019l.778.802.802-.778a.916.916 0 0 1 1.267.019.898.898 0 0 1-.019 1.267l-.802.778.778.802c.167.172.256.398.253.637s-.1.463-.272.63a.892.892 0 0 1-1.267-.019l-.778-.802-.802.779a.917.917 0 0 1-1.267-.019.898.898 0 0 1 .019-1.267l.802-.778-.778-.803zm6.774 10.421c3.301 2.701 3.543 6.877 3.552 7.054a.893.893 0 0 1-.85.939c-.013.002-.029.002-.044.002a.895.895 0 0 1-.895-.851c-.002-.034-.238-3.587-2.906-5.764-1.921-1.568-4.693-2.103-8.178-1.577a.901.901 0 0 1-1.02-.754.896.896 0 0 1 .753-1.019c4.012-.604 7.259.064 9.588 1.97zm.934 18.377c2.349 0 4.259 1.971 4.259 4.391 0 2.422-1.91 4.391-4.259 4.391-2.348 0-4.259-1.969-4.259-4.391 0-2.421 1.911-4.391 4.259-4.391zm-6.028-2.553a3.566 3.566 0 0 1-3.562-3.563c0-1.963 1.598-3.561 3.562-3.561s3.562 1.598 3.562 3.561a3.567 3.567 0 0 1-3.562 3.563zm-2.851 6.611c2.066 0 3.747 1.637 3.747 3.648s-1.681 3.649-3.747 3.649c-2.065 0-3.746-1.638-3.746-3.649s1.681-3.648 3.746-3.648zm-5.247-14.441a2.332 2.332 0 0 1-2.329-2.33 2.332 2.332 0 0 1 2.329-2.328 2.331 2.331 0 0 1 2.329 2.328 2.332 2.332 0 0 1-2.329 2.33zm-2.871 5.386c1.402 0 2.543 1.142 2.543 2.544s-1.141 2.543-2.543 2.543-2.543-1.141-2.543-2.543 1.14-2.544 2.543-2.544zm-2.304-2.993a2.307 2.307 0 0 1 2.304-2.304c1.27 0 2.303 1.033 2.303 2.304s-1.033 2.304-2.303 2.304a2.307 2.307 0 0 1-2.304-2.304zm3.512 8.521c1.467 0 2.66 1.193 2.66 2.66s-1.193 2.659-2.66 2.659c-1.466 0-2.66-1.192-2.66-2.659s1.194-2.66 2.66-2.66zm2.293-18.537a.888.888 0 0 1-.472.498c-8.049 3.58-9.772 13.843-7.922 19.875 1.833 5.979 8.377 10.154 15.915 10.154a19.53 19.53 0 0 0 4.773-.59c3.066-.771 5.829-2.863 7.39-5.599 1.266-2.218 1.601-4.663.945-6.886-.974-3.3-3.409-3.992-5.28-3.992-.686 0-1.157.098-1.208.109a.906.906 0 0 1-1.066-.685.892.892 0 0 1 .684-1.066c.005-.002.601-.131 1.502-.131 2.067 0 5.737.684 7.087 5.256.796 2.695.403 5.637-1.107 8.281-1.798 3.15-4.979 5.562-8.509 6.449a21.358 21.358 0 0 1-5.217.638h-.002c-3.053 0-6.071-.636-8.729-1.839-4.458-2.019-7.616-5.42-8.891-9.576-2.045-6.669-.087-18.037 8.908-22.038a.897.897 0 0 1 1.199 1.142zM32.715 160.4a.895.895 0 0 1 1.635-.256c.023.037 2.489 3.891 8.468 5.736 1.872.577 3.798.871 5.725.871 5.355-.001 9.025-2.258 9.062-2.28a.891.891 0 0 1 1.235.277.895.895 0 0 1-.275 1.235c-.166.105-4.12 2.575-9.95 2.575-2.118 0-4.246-.325-6.325-.967-6.698-2.067-9.358-6.334-9.468-6.515a.876.876 0 0 1-.107-.676zm26.386 33.103a.895.895 0 0 1 1.609.388l.832 5.281 3.773-.813a.892.892 0 0 1 1.082.808l.426 5.64a.884.884 0 0 1-.214.651.892.892 0 0 1-.612.31c-.022.001-.045.003-.068.003a.9.9 0 0 1-.893-.829l-.349-4.614-3.695.796a.9.9 0 0 1-1.074-.738l-.979-6.217a.884.884 0 0 1 .162-.666zm8.46-55.985a.916.916 0 0 1-.685-.031.888.888 0 0 1-.463-.505L54.492 104.18a.898.898 0 0 1 .536-1.148l47.63-17.31a.9.9 0 0 1 1.148.536l11.921 32.801a.898.898 0 0 1-.536 1.148l-47.63 17.311zm36.805-55.627a.899.899 0 0 1 1.148.536l12.05 33.155a.898.898 0 0 1-.842 1.202.899.899 0 0 1-.842-.59l-11.743-32.313-45.125 16.399a.9.9 0 0 1-1.148-.536.897.897 0 0 1 .536-1.148l45.966-16.705zM64.94 43.987l6.106-20.983a.9.9 0 0 1 1.11-.61.897.897 0 0 1 .61 1.111L66.66 44.487a.9.9 0 0 1-1.11.61.898.898 0 0 1-.61-1.11zm12.445 38.624a.897.897 0 0 1 0 1.792h-2.076v2.076a.897.897 0 0 1-1.792 0v-2.076h-2.076a.897.897 0 0 1 0-1.792h2.076v-2.076a.897.897 0 0 1 1.792 0v2.076h2.076zm36.786 47.677c0-.331.069-.659.201-.962l-2.733-2.734a.89.89 0 0 1-.262-.633.89.89 0 0 1 .262-.634.918.918 0 0 1 1.267 0l2.733 2.733a2.445 2.445 0 0 1 1.926-.001l2.732-2.732a.92.92 0 0 1 1.268 0 .89.89 0 0 1 .262.634.886.886 0 0 1-.263.633l-2.731 2.731a2.42 2.42 0 0 1 0 1.927l2.732 2.733c.169.169.262.395.262.634s-.093.464-.263.634a.894.894 0 0 1-1.266 0l-2.732-2.734a2.43 2.43 0 0 1-1.927.001l-2.733 2.733a.917.917 0 0 1-1.267-.001.897.897 0 0 1 0-1.267l2.733-2.733a2.411 2.411 0 0 1-.201-.962zm6.598-23.623a.897.897 0 0 1 0-1.792h4.527a2.633 2.633 0 0 1 1.603-1.605v-4.525a.897.897 0 0 1 1.792 0v4.525a2.65 2.65 0 0 1 1.605 1.605h4.524a.897.897 0 0 1 0 1.792h-4.523a2.656 2.656 0 0 1-1.605 1.606v4.525a.897.897 0 0 1-1.792 0v-4.525a2.64 2.64 0 0 1-1.604-1.605h-4.527zm4.386-36.404-2.2 2.2a.917.917 0 0 1-1.267 0 .897.897 0 0 1 0-1.267l2.2-2.201a6.691 6.691 0 0 1-1.334-3.216h-3.11a.897.897 0 0 1 0-1.792h3.11a6.7 6.7 0 0 1 1.334-3.216l-2.201-2.2a.897.897 0 0 1 0-1.267.918.918 0 0 1 1.267 0l2.201 2.2a6.702 6.702 0 0 1 3.216-1.335v-3.109a.897.897 0 0 1 1.792 0v3.109a6.706 6.706 0 0 1 3.216 1.335l2.201-2.2a.918.918 0 0 1 1.267 0 .897.897 0 0 1 0 1.267l-2.201 2.2a6.693 6.693 0 0 1 1.335 3.216h3.109a.897.897 0 0 1 0 1.792h-3.109a6.693 6.693 0 0 1-1.335 3.216l2.2 2.201a.89.89 0 0 1 0 1.267.918.918 0 0 1-1.267 0l-2.2-2.2a6.705 6.705 0 0 1-3.216 1.334v3.109a.896.896 0 0 1-1.792 0v-3.109a6.7 6.7 0 0 1-3.216-1.334zm17.435-27.19c.494 0 .896.402.896.896v3.142a.897.897 0 0 1-1.792 0v-3.142a.896.896 0 0 1 .896-.896zm-.897-3.428V36.5a.897.897 0 0 1 1.792 0v3.143a.897.897 0 0 1-1.792 0zm.897 10.895c.494 0 .896.402.896.896v3.143a.897.897 0 0 1-1.792 0v-3.143a.896.896 0 0 1 .896-.896zm0 7.467c.494 0 .896.402.896.896v3.143a.897.897 0 0 1-1.792 0v-3.143a.896.896 0 0 1 .896-.896zm0 7.467c.494 0 .896.402.896.896v3.143a.897.897 0 0 1-1.792 0v-3.143a.896.896 0 0 1 .896-.896zm0 7.467c.494 0 .896.402.896.896v3.143a.897.897 0 0 1-1.792 0v-3.143a.896.896 0 0 1 .896-.896zm-.777 18.283a.896.896 0 0 1-.018 1.266l-.803.779.778.802a.896.896 0 1 1-1.287 1.248l-.777-.802-.803.778a.916.916 0 0 1-1.267-.019.897.897 0 0 1 .019-1.267l.802-.778-.778-.803a.896.896 0 0 1 .02-1.267.916.916 0 0 1 1.266.019l.779.803.802-.779a.917.917 0 0 1 1.267.02zm7.484-13.926a.888.888 0 0 1 .071-.681.892.892 0 0 1 .532-.433l22.143-6.58a.902.902 0 0 1 1.115.603l8.669 29.172a.894.894 0 0 1-.603 1.114l-22.143 6.58a.91.91 0 0 1-.682-.071.893.893 0 0 1-.433-.532l-.708-2.383-1.442.429a.9.9 0 0 1-1.114-.604.894.894 0 0 1 .603-1.114l1.443-.429-.453-1.523-1.443.429a.9.9 0 0 1-1.043-1.286.896.896 0 0 1 .533-.432l1.442-.429-.452-1.524-1.443.429a.9.9 0 0 1-1.043-1.285.893.893 0 0 1 .533-.432l1.441-.428-.452-1.524-1.442.429a.901.901 0 0 1-1.114-.604.9.9 0 0 1 .071-.682.89.89 0 0 1 .533-.432l1.441-.429-.452-1.523-1.442.428a.901.901 0 0 1-1.114-.603.9.9 0 0 1 .604-1.114l1.441-.428-.453-1.523-1.442.429a.903.903 0 0 1-1.114-.604.891.891 0 0 1 .072-.682.888.888 0 0 1 .532-.432l1.442-.429-.453-1.523-1.442.428a.885.885 0 0 1-.255.038.903.903 0 0 1-.859-.641.891.891 0 0 1 .072-.682.888.888 0 0 1 .532-.432l1.442-.429-.453-1.524-1.442.429a.9.9 0 0 1-1.044-1.286.896.896 0 0 1 .533-.432l1.442-.429-.707-2.384zm9.135 107.059a4.683 4.683 0 0 1 4.465-3.244 4.683 4.683 0 0 1 4.464 3.244.898.898 0 0 1-.852 1.173.895.895 0 0 1-.852-.619 2.896 2.896 0 0 0-2.76-2.006c-1.262 0-2.37.806-2.76 2.006a.894.894 0 0 1-1.129.575.897.897 0 0 1-.576-1.129zm8.078-21.851-2.732 2.732a.916.916 0 0 1-1.268 0c-.17-.168-.263-.394-.263-.633s.093-.465.263-.633l2.733-2.734a2.415 2.415 0 0 1 0-1.926l-2.732-2.732a.897.897 0 0 1 0-1.268.918.918 0 0 1 1.267 0l2.733 2.734a2.44 2.44 0 0 1 1.926-.002l2.732-2.731a.916.916 0 0 1 1.267 0c.17.169.263.394.263.634a.888.888 0 0 1-.263.633l-2.731 2.732a2.411 2.411 0 0 1-.001 1.926l2.732 2.734a.89.89 0 0 1 0 1.267.89.89 0 0 1-1.267-.001l-2.731-2.732c-.61.266-1.32.265-1.928 0zm-3.819-53.527a.9.9 0 0 1-1.043-1.286.896.896 0 0 1 .533-.432l20.91-6.214-8.561-28.81a.894.894 0 1 1 1.717-.51l8.816 29.668a.895.895 0 0 1-.604 1.114l-21.768 6.47zm33.098 9.42c-1.026-.238-2.681-.263-3.344-.263l-.271.001-.036.001a.897.897 0 0 1-.002-1.792c.021 0 .145-.002.339-.002.715 0 2.509.03 3.718.31 3.113.722 6.174 3.21 5.717 6.402-.443 3.106-2.174 3.185-4.176 3.276-.646.029-1.377.063-2.209.185-2.396.351-3.406 3.31-4.296 5.921-.185.54-.357 1.049-.541 1.528-.703 1.839-2.685 3.369-4.931 3.809a7.103 7.103 0 0 1-1.355.133h-.002c-1.939 0-3.732-.818-5.182-2.369-4.012-4.291-1.398-10.982-1.285-11.265a.891.891 0 0 1 1.164-.499.9.9 0 0 1 .5 1.164c-.023.059-2.285 5.936.93 9.375 1.102 1.178 2.446 1.801 3.889 1.801.329 0 .664-.033.998-.098 1.637-.32 3.117-1.427 3.601-2.689.171-.448.34-.941.519-1.465 1.004-2.947 2.252-6.61 5.732-7.12.922-.135 1.699-.17 2.387-.202 1.951-.088 2.25-.102 2.484-1.739.295-2.057-1.979-3.854-4.348-4.403zm5.883 11.165a3.528 3.528 0 0 1-2.94 1.595 3.525 3.525 0 0 1-2.94-1.595.88.88 0 0 1-.131-.673.885.885 0 0 1 .383-.569.895.895 0 0 1 1.241.252c.329.497.87.792 1.447.792s1.118-.296 1.446-.792a.895.895 0 0 1 1.625.317.885.885 0 0 1-.131.673zm-10.8 13.622a.895.895 0 0 1-1.18.462c-.099-.042-2.473-1.088-3.689-2.958-.131-.2-.176-.439-.126-.674s.188-.436.388-.565a.892.892 0 0 1 1.24.262c.908 1.394 2.826 2.258 2.906 2.294a.892.892 0 0 1 .461 1.179zm-7.546-15.084v-1.364a.897.897 0 0 1 1.792 0v1.364a.897.897 0 0 1-1.792 0zm1.817-8.361-.023 3.42a.899.899 0 0 1-.896.889h-.004a.898.898 0 0 1-.893-.902l.029-3.979a.896.896 0 0 1 .545-.818c.043-.019 4.303-1.886 4.303-5.067 0-2.312-1.348-3.56-2.615-3.56-.664 0-1.521.398-1.994.926a.922.922 0 0 1-1.266.07.9.9 0 0 1-.07-1.265c.816-.911 2.154-1.523 3.33-1.523 2.137 0 4.407 1.875 4.407 5.352-.001 3.593-3.473 5.745-4.853 6.457zm27.589-35.986a.89.89 0 0 1-.426.537c-.01.005-1.295.758-1.535 2.029-.167.883.193 1.876 1.069 2.952 2.8 3.436.364 6.377.339 6.407a.897.897 0 0 1-1.367-1.16c.061-.072 1.493-1.838-.362-4.115-1.229-1.509-1.713-3-1.438-4.429.406-2.11 2.341-3.204 2.422-3.25a.9.9 0 0 1 1.219.348.876.876 0 0 1 .079.681zm1.495 1.466a.895.895 0 1 1 1.18 1.348c-.232.208-.865.886-.967 1.5a.892.892 0 0 1-1.029.737.892.892 0 0 1-.583-.363.887.887 0 0 1-.155-.668c.224-1.359 1.418-2.436 1.554-2.554zm-4.81 8.965a.897.897 0 0 1-1.629.746c-.066-.146-.652-1.457-.753-2.559a.897.897 0 0 1 1.785-.163c.073.813.592 1.964.597 1.976zm4.843-.197.404-1.216a.893.893 0 0 1 1.132-.568c.47.156.724.665.568 1.133l-.405 1.217a.893.893 0 0 1-1.132.567.896.896 0 0 1-.567-1.133zm18.678 21.435h-2.076v2.076a.897.897 0 0 1-1.792 0v-2.076h-2.076a.897.897 0 0 1 0-1.792h2.076v-2.076a.897.897 0 0 1 1.792 0v2.076h2.076a.897.897 0 0 1 0 1.792zm5.179-13.065a.897.897 0 0 1-.896.896h-4.117a.897.897 0 0 1-.896-.896v-2.864c0-.494.402-.896.896-.896h4.117c.493 0 .896.402.896.896v2.864zm6.085-2.864c0-.494.402-.896.896-.896h4.118c.494 0 .896.402.896.896v2.864a.896.896 0 0 1-.896.896h-4.118a.898.898 0 0 1-.896-.896v-2.864zm-.983 4.802c.494 0 .896.402.896.896v2.864a.897.897 0 0 1-.896.896h-4.117a.897.897 0 0 1-.896-.896v-2.864c0-.494.402-.896.896-.896h4.117zm-2.11-17.605-.803.778.779.802a.897.897 0 0 1-1.287 1.248l-.778-.802-.802.779a.919.919 0 0 1-1.268-.02.896.896 0 0 1 .019-1.266l.803-.779-.779-.803a.896.896 0 0 1 .02-1.267.916.916 0 0 1 1.266.019l.779.802.802-.778a.918.918 0 0 1 1.268.019.899.899 0 0 1-.019 1.268zm2.186-50.675c.669.858 1.915 2.457.482 4.366l-.115.154c-.722.958-1.402 1.862-1.1 2.604.376.918 1.242 1.383 1.251 1.388a.896.896 0 0 1-.807 1.6c-.148-.075-1.475-.776-2.102-2.309-.689-1.685.428-3.168 1.326-4.361l.114-.153c.414-.552.503-.948-.464-2.188-1.391-1.784-1.26-3.623.357-5.046.948-.834.733-1.289.236-2.085-.141-.224-.383-.457-.639-.704-.624-.599-1.4-1.345-1.344-2.581.079-1.752 2.119-2.79 2.352-2.902a.895.895 0 0 1 1.198.417.897.897 0 0 1-.416 1.196c-.527.258-1.32.872-1.343 1.371-.019.405.29.723.795 1.208.323.311.659.633.917 1.046.428.684 1.563 2.501-.572 4.38-.906.799-.943 1.552-.126 2.599zm-.707-18.405c1.337 0 2.426 1.088 2.426 2.426s-1.089 2.425-2.426 2.425c-1.338 0-2.426-1.088-2.426-2.425s1.088-2.426 2.426-2.426zm-2.114 61.047a.896.896 0 0 1-.896.896h-33.819a.897.897 0 0 1 0-1.792h33.819c.494 0 .896.402.896.896zm-28.851-59.04a.889.889 0 0 1 .186-1.253.9.9 0 0 1 1.253.186l1.365 1.839c.143.192.202.428.167.665s-.16.446-.352.588a.89.89 0 0 1-.534.177.901.901 0 0 1-.72-.362l-1.365-1.84zm.31 7.307a.892.892 0 0 1-1.261.114l-1.958-1.631a.896.896 0 1 1 1.146-1.376l1.959 1.632c.378.316.43.881.114 1.261zm10.036-6.898c4.813 0 8.729 3.915 8.729 8.727a8.705 8.705 0 0 1-3.967 7.313.898.898 0 0 1-1.24-.261l-.006-.01a.9.9 0 0 1-.385.337l-5.518 2.515a.898.898 0 0 1-1.187-.443c-.1-.218-.107-.461-.023-.686s.25-.402.467-.502l5.518-2.515a.897.897 0 0 1 1.129.337.888.888 0 0 1 .267-.272 6.919 6.919 0 0 0 3.153-5.813c0-3.824-3.111-6.935-6.936-6.935s-6.936 3.111-6.936 6.935a6.922 6.922 0 0 0 3.153 5.813c.413.27.53.826.261 1.24a.894.894 0 0 1-1.24.261 8.71 8.71 0 0 1-3.966-7.313c-.001-4.813 3.914-8.728 8.727-8.728zm-4.671-4.815a.898.898 0 0 1 1.142.551l.89 2.551a.897.897 0 0 1-1.693.59l-.89-2.551a.897.897 0 0 1 .551-1.141zm4.905 2.503.18-1.75a.896.896 0 0 1 1.783.184l-.182 1.75a.893.893 0 0 1-.984.799.888.888 0 0 1-.797-.983zm-2.621 25.407a.898.898 0 0 1-1.187-.443.887.887 0 0 1-.023-.686.89.89 0 0 1 .467-.501l5.518-2.515a.896.896 0 1 1 .743 1.63l-5.518 2.515zm5.063 2.631a2.678 2.678 0 0 1-2.676 2.676c-1.475 0-2.676-1.201-2.676-2.676s1.201-2.676 2.676-2.676c1.476 0 2.676 1.2 2.676 2.676zm-6.274-5.997a.89.89 0 0 1 .467-.501l5.518-2.515a.898.898 0 0 1 1.187.443c.1.218.107.461.023.686s-.25.402-.467.501l-5.518 2.515a.898.898 0 0 1-1.187-.443.892.892 0 0 1-.023-.686zm6.54 17.059a.899.899 0 0 1 1.148-.536l5.399 1.958a.892.892 0 0 1 .536 1.148.898.898 0 0 1-1.147.537l-5.4-1.958a.893.893 0 0 1-.536-1.149zm6.491-29.464a.896.896 0 0 1 .492-1.167l2.135-.866a.895.895 0 1 1 .674 1.661l-2.135.866a.892.892 0 0 1-1.166-.494zm1.575-5.832-1.424 1.602a.898.898 0 0 1-1.265.075.899.899 0 0 1-.075-1.265l1.425-1.602a.922.922 0 0 1 1.265-.075.898.898 0 0 1 .074 1.265zm-3.018-4.123-1.552 2.227a.898.898 0 0 1-1.247.223c-.197-.137-.328-.342-.37-.578s.01-.474.147-.67l1.552-2.227a.895.895 0 1 1 1.47 1.025zM217.14 29.419a.897.897 0 0 1-1.199-1.332l2.67-2.403a.923.923 0 0 1 1.266.067.898.898 0 0 1-.067 1.265l-2.67 2.403zm2.503 36.891c-1.119-.852-1.744-2.952-1.543-5.512.168-2.13.94-4.392 2.283-5.17a2.882 2.882 0 0 1-1.439-2.492 2.886 2.886 0 0 1 2.883-2.883 2.886 2.886 0 0 1 2.885 2.883c0 1.277-.834 2.36-1.986 2.739.054.048.107.099.158.154a.857.857 0 0 1 .144.153l.025.036c.056.068.124.163.195.272l4.628 6.438h3.277a.897.897 0 0 1 0 1.792h-3.737a.902.902 0 0 1-.728-.373l-2.539-3.534c-.006.153-.016.306-.027.46-.109 1.374-.461 2.687-.969 3.658l4.916.001c.477 0 .87.374.895.851l.342 6.697h1.848a.897.897 0 0 1 0 1.792h-2.699a.895.895 0 0 1-.895-.851l-.343-6.697h-1.896c.09.139.143.304.143.481a.897.897 0 0 1-.896.896h-4.164a.889.889 0 0 1 .279.646v4.985c0 .19-.061.365-.162.511 1.551.177 2.928.909 3.773 2.036a.896.896 0 0 1-1.434 1.076c-.631-.84-1.809-1.362-3.074-1.362s-2.443.522-3.072 1.362a.905.905 0 0 1-.718.358.893.893 0 0 1-.887-.769.883.883 0 0 1 .171-.665c.844-1.126 2.221-1.859 3.771-2.036a.886.886 0 0 1-.161-.511v-4.985a.89.89 0 0 1 .278-.646h-4.271a.903.903 0 0 1-.811-.512l-5.934-12.519a.897.897 0 0 1 1.621-.767l5.69 12.007h4.18zm18.444-50.614c.751 0 1.363.612 1.363 1.363 0 .752-.612 1.364-1.363 1.364s-1.363-.612-1.363-1.364c0-.751.612-1.363 1.363-1.363zm-1.202 40.203c.445.217.63.755.413 1.199l-2.313 4.745a.9.9 0 0 1-.806.503h-4.983a.897.897 0 0 1 0-1.792h4.424l2.068-4.242a.9.9 0 0 1 1.197-.413zm-29.251-41.723a.888.888 0 0 1 .525-.44c5.897-1.858 10.517-3.173 16.26-3.173.384 0 .776.006 1.168.018 6.274.185 10.192 3.175 10.356 3.303a.896.896 0 0 1-.549 1.604h-.001a.905.905 0 0 1-.549-.188c-.034-.026-3.679-2.761-9.31-2.926-6.047-.18-10.52 1.083-16.838 3.073a.892.892 0 0 1-1.124-.585.903.903 0 0 1 .062-.686zm-10.72 8.096h2.076v-2.076a.897.897 0 0 1 1.792 0v2.076h2.076a.897.897 0 0 1 0 1.792h-2.076v2.076a.897.897 0 0 1-1.792 0v-2.076h-2.076a.897.897 0 0 1 0-1.792zm-4.233 8.55a.896.896 0 0 1 1.792 0v5.866h9.227c.494 0 .896.402.896.896v5.866h6.111c.084 0 .164.015.241.037l-2.403-1.388a.897.897 0 0 1 .896-1.552l5.12 2.957a.9.9 0 0 1 .448.776.899.899 0 0 1-.448.776l-5.12 2.957a.895.895 0 1 1-.896-1.552l2.111-1.219h-6.957a.897.897 0 0 1-.896-.896V38.48h-9.227a.897.897 0 0 1-.896-.896v-6.762zm7.353 20.244a.898.898 0 0 1-1.287 1.249l-.848-.873-.873.848a.918.918 0 0 1-1.268-.019.897.897 0 0 1 .02-1.267l.873-.848-.848-.874a.892.892 0 0 1 .018-1.267.917.917 0 0 1 1.267.019l.848.874.873-.848a.918.918 0 0 1 1.268.019.896.896 0 0 1-.02 1.267l-.873.848.85.872zm-7.153 18.339a.898.898 0 0 1 .533-.552c-.016-.026-.029-.053-.043-.081a.89.89 0 0 1-.03-.685c1.929-5.322 3.051-6.004 3.813-6.004.069 0 .133.007.189.016.51-.262 1.021-.339 1.508-.225.947.22 2.115 1.237 2.312 4.837.134 2.457-.205 5.588-.955 8.816a40.837 40.837 0 0 1-.806 2.963.891.891 0 0 1-1.123.587c-.228-.071-.414-.227-.525-.439s-.133-.455-.062-.683c.286-.914.545-1.868.771-2.834.713-3.066 1.036-6.019.911-8.313-.097-1.765-.431-2.616-.685-2.973.201 1.158.162 2.96-.113 5.469a.896.896 0 0 1-.402.655.89.89 0 0 1 .235.732c-.389 2.938-1.027 6.356-1.847 9.884-2.16 9.289-6.291 16.469-6.332 16.54a.897.897 0 0 1-1.668-.388c-.006-.082-.553-8.309 1.615-17.638.82-3.529 1.756-6.878 2.704-9.684zm-6.444-57.934a.891.891 0 0 1 .792-.479c.396 0 .739.254.856.631l1.251 4.042a.892.892 0 0 1-.591 1.121.89.89 0 0 1-1.12-.591l-1.251-4.042a.882.882 0 0 1 .063-.682zm-.625 7.929a.892.892 0 0 1 .792-.479.89.89 0 0 1 .856.632l.823 2.661a.894.894 0 0 1-.856 1.161.888.888 0 0 1-.855-.631l-.824-2.661a.888.888 0 0 1 .064-.683zm-4.885-11.379a.89.89 0 0 1 .793-.478.89.89 0 0 1 .855.631l1.685 5.445a.888.888 0 0 1-.063.683.884.884 0 0 1-.528.438.888.888 0 0 1-1.12-.591l-1.686-5.444a.894.894 0 0 1 .064-.684zm-2.329 4.034a.886.886 0 0 1 .792-.479.89.89 0 0 1 .855.631l2.136 6.901a.892.892 0 0 1-.856 1.161.89.89 0 0 1-.855-.631l-2.137-6.901a.886.886 0 0 1 .065-.682zm9.487 25.361c3.488 9.709-1.573 20.445-11.282 23.934a18.698 18.698 0 0 1-6.336 1.111c-2.758 0-5.438-.604-7.966-1.796a18.587 18.587 0 0 1-9.63-10.598 18.672 18.672 0 0 1 3.826-18.985.924.924 0 0 1 1.266-.055.893.893 0 0 1 .055 1.266 16.885 16.885 0 0 0-3.461 17.168 16.813 16.813 0 0 0 8.708 9.583 16.77 16.77 0 0 0 7.202 1.625 16.9 16.9 0 0 0 5.73-1.005c8.779-3.154 13.355-12.862 10.201-21.641-2.406-6.698-8.811-11.198-15.937-11.198a16.8 16.8 0 0 0-5.704.998 16.978 16.978 0 0 0-3.357 1.641.893.893 0 0 1-1.354-.953.888.888 0 0 1 .395-.561 18.736 18.736 0 0 1 3.711-1.814 18.602 18.602 0 0 1 6.308-1.103c7.881-.001 14.964 4.976 17.625 12.383zm-30.696 11.028c1.979 5.507 7.244 9.208 13.104 9.208 1.597 0 3.174-.276 4.688-.82 7.218-2.594 10.979-10.575 8.388-17.793-1.979-5.507-7.244-9.207-13.104-9.207-1.598 0-3.176.276-4.689.82-.729.262-1.436.583-2.103.956a.893.893 0 0 1-1.22-.345.889.889 0 0 1-.079-.681.89.89 0 0 1 .425-.538 16.04 16.04 0 0 1 2.37-1.078 15.624 15.624 0 0 1 5.294-.926c6.613 0 12.558 4.177 14.791 10.393 2.928 8.148-1.32 17.158-9.468 20.085-1.71.614-3.49.925-5.293.925-6.614 0-12.558-4.177-14.792-10.394a15.67 15.67 0 0 1 3.216-15.936.922.922 0 0 1 1.267-.054.898.898 0 0 1 .054 1.266 13.881 13.881 0 0 0-2.849 14.119zm4.634-13.904a.895.895 0 0 1 1.58-.488l7.04 8.489 5.382-3.693a.898.898 0 0 1 1.015 1.478l-6.057 4.156a.892.892 0 0 1-1.197-.167l-7.562-9.119a.898.898 0 0 1-.201-.656zm-15.445-19.682 2.301-8.937c.331-1.289 1.584-2.26 2.913-2.26h.042c.717.018 1.33.32 1.731.851.401.531.528 1.238.347 1.938l-.309 1.2 6.757-5.55a2.98 2.98 0 0 1 1.876-.696c.708 0 1.326.277 1.74.781.826 1.006.549 2.605-.619 3.564l-3.485 2.863c.159.109.302.24.423.388.34.413.506.946.479 1.504a2.175 2.175 0 0 1 1.383.761c.338.412.501.942.471 1.501a2.17 2.17 0 0 1 1.389.763c.42.511.574 1.204.424 1.901-.135.632-.506 1.223-1.043 1.664l-6.265 5.146c-.777.639-1.72.99-2.652.99-.967 0-1.807-.374-2.365-1.054l-3.663-4.461a.896.896 0 0 1 1.384-1.138l3.664 4.461c.215.263.562.407.977.407.508 0 1.061-.215 1.518-.59l6.266-5.146c.219-.179.379-.424.428-.655.035-.163.016-.3-.057-.387-.071-.087-.197-.131-.375-.131-.229.003-.501.113-.719.292a.902.902 0 0 1-.144.096l-.05.024a.777.777 0 0 1-.159.056.86.86 0 0 1-.104.02l-.065.006a.41.41 0 0 1-.048.003l-.055-.004a.89.89 0 0 1-.272-.06l-.066-.028a1.01 1.01 0 0 1-.299-.236.894.894 0 0 1 .123-1.261c.413-.339.539-.839.373-1.042-.068-.083-.196-.13-.352-.13a1.236 1.236 0 0 0-.742.293.851.851 0 0 1-.142.094l-.052.025a.835.835 0 0 1-.331.082.333.333 0 0 1-.045.003l-.056-.003a1.022 1.022 0 0 1-.165-.026.72.72 0 0 1-.108-.036.715.715 0 0 1-.176-.093.876.876 0 0 1-.188-.169.887.887 0 0 1-.199-.656.892.892 0 0 1 .322-.604c.219-.179.379-.424.429-.655.035-.163.015-.3-.058-.387-.092-.113-.26-.13-.352-.13-.242 0-.52.109-.741.292l-.061.042a.887.887 0 0 1-1.202-.166.885.885 0 0 1-.198-.656.885.885 0 0 1 .323-.605l5.541-4.551c.205-.169.357-.394.417-.616.048-.177.03-.333-.046-.426-.093-.113-.261-.13-.353-.13-.242 0-.519.109-.741.292l-8.877 7.292a.892.892 0 0 1-.435.193l-.041.004a.755.755 0 0 1-.093.007l-.05-.003c-.02-.001-.039-.004-.058-.006-.03-.004-.054-.007-.073-.011l-.041-.008a.483.483 0 0 1-.076-.026.632.632 0 0 1-.092-.036.918.918 0 0 1-.139-.084l-.038-.03a.905.905 0 0 1-.097-.091l-.02-.022a.469.469 0 0 1-.053-.073.5.5 0 0 1-.047-.072c-.014-.023-.023-.047-.035-.071a.694.694 0 0 1-.054-.161c-.007-.032-.014-.063-.019-.096a2.138 2.138 0 0 1-.004-.067c-.001-.04-.002-.074.001-.108a.556.556 0 0 1 .009-.066.613.613 0 0 1 .016-.09l.994-3.855c.043-.171.029-.317-.042-.411-.065-.086-.187-.136-.343-.14-.512 0-1.054.428-1.18.915l-2.3 8.937a.897.897 0 0 1-1.091.645.902.902 0 0 1-.641-1.094zm-2.185 1.912a.898.898 0 0 1 1.583-.482l6.46 7.865a.897.897 0 0 1-1.385 1.138l-6.459-7.865a.882.882 0 0 1-.199-.656zm-1.816 1.15a.89.89 0 0 1 1.26.124l6.461 7.865a.897.897 0 0 1-.692 1.465.89.89 0 0 1-.692-.327l-6.461-7.865a.9.9 0 0 1 .124-1.262zm-2.138 1.756a.89.89 0 0 1 1.26.123l6.46 7.865a.896.896 0 0 1-1.384 1.138l-6.46-7.865a.898.898 0 0 1 .124-1.261zm-2.976 13.262h3.143a.897.897 0 0 1 0 1.792h-3.143a.897.897 0 0 1 0-1.792zm-7.467 0h3.143a.897.897 0 0 1 0 1.792h-3.143a.897.897 0 0 1 0-1.792zm-.707 6.426-.588-2.158a.897.897 0 0 1 1.728-.472l.588 2.156a5.268 5.268 0 0 1 2.437.31l1.107-1.941a.9.9 0 0 1 1.222-.334.897.897 0 0 1 .334 1.222l-1.106 1.939a5.422 5.422 0 0 1 1.502 1.944l2.155-.588a.897.897 0 0 1 .472 1.729l-2.156.589a5.411 5.411 0 0 1-.307 2.437l1.938 1.107a.897.897 0 0 1-.889 1.556l-1.94-1.108a5.449 5.449 0 0 1-1.941 1.502l.589 2.158a.888.888 0 0 1-.087.68.887.887 0 0 1-.777.452.899.899 0 0 1-.865-.66l-.588-2.156a5.247 5.247 0 0 1-2.436-.31l-1.108 1.94a.899.899 0 0 1-1.223.334.896.896 0 0 1-.333-1.223l1.106-1.938a5.389 5.389 0 0 1-1.505-1.943l-2.153.587a.898.898 0 0 1-1.1-.629.897.897 0 0 1 .629-1.1l2.153-.587a5.389 5.389 0 0 1 .31-2.439l-1.938-1.107a.895.895 0 1 1 .889-1.556l1.94 1.109a5.44 5.44 0 0 1 1.941-1.502zm-6.761-6.426h3.144a.897.897 0 0 1 0 1.792h-3.144a.897.897 0 0 1 0-1.792zm-7.466 0h3.143a.897.897 0 0 1 0 1.792h-3.143a.897.897 0 0 1 0-1.792zm-7.467 0h3.142a.897.897 0 0 1 0 1.792h-3.142a.897.897 0 0 1 0-1.792zm-7.467 0h3.143a.897.897 0 0 1 0 1.792h-3.143a.897.897 0 0 1 0-1.792zm-3.2 16.487h4.271a8.416 8.416 0 0 1 1.851-4.461l-3.022-3.023a.894.894 0 0 1 0-1.267.92.92 0 0 1 1.268 0l3.022 3.022a8.41 8.41 0 0 1 4.461-1.852v-4.271a.897.897 0 0 1 1.792 0v4.271a8.41 8.41 0 0 1 4.462 1.852l3.023-3.022a.918.918 0 0 1 1.268 0c.169.169.262.394.262.633s-.093.464-.263.634l-3.023 3.022a8.41 8.41 0 0 1 1.852 4.461h4.271a.897.897 0 0 1 0 1.792h-4.271a8.41 8.41 0 0 1-1.852 4.461l3.022 3.022a.89.89 0 0 1 0 1.267.918.918 0 0 1-1.267 0l-3.022-3.022a8.413 8.413 0 0 1-4.462 1.852v4.271a.897.897 0 0 1-1.792 0v-4.271a8.411 8.411 0 0 1-4.46-1.852l-3.023 3.023a.918.918 0 0 1-1.267 0 .896.896 0 0 1 0-1.267l3.023-3.023a8.41 8.41 0 0 1-1.852-4.461h-4.271a.895.895 0 1 1-.001-1.791zm6.01 25.127c4.062 0 7.541 1.273 10.636 3.891 1.311 1.109 2.534 2.212 3.717 3.278 4.137 3.729 7.401 6.672 10.63 6.672a5.19 5.19 0 0 0 1.361-.183c2.182-.596 3.057-2.618 2.947-4.245-.078-1.171-.691-2.494-2.177-2.692a2.866 2.866 0 0 0-.386-.026c-2.026 0-2.379 2.456-2.394 2.561a.9.9 0 0 1-1.007.768.898.898 0 0 1-.769-1.009c.193-1.423 1.31-4.114 4.152-4.114.207 0 .423.015.641.044 2.105.281 3.569 1.987 3.729 4.348.156 2.331-1.111 5.233-4.264 6.094a6.903 6.903 0 0 1-1.815.245c-3.938 0-7.603-3.304-11.846-7.129a155.034 155.034 0 0 0-3.677-3.243c-2.807-2.375-5.813-3.48-9.459-3.48-2.942 0-5.933.732-8.826 1.44l-.766.187a16.523 16.523 0 0 1-3.893.473c-4.524 0-7.48-1.958-7.604-2.041a.885.885 0 0 1-.378-.572.894.894 0 0 1 1.38-.914c.025.017 2.658 1.727 6.653 1.727 1.137 0 2.288-.139 3.419-.414l.763-.187c2.969-.727 6.041-1.479 9.233-1.479zM92.279 44.326a.893.893 0 0 1 .872 1.105L88.156 66.3a.903.903 0 0 1-.055.159l-.013.026a.944.944 0 0 1-.077.128l-.035.047-7.436 9.073a.89.89 0 0 1-.902.304.9.9 0 0 1-.666-.679l-2.53-11.512a.894.894 0 0 1-.011-.169l.008-.077a.691.691 0 0 1 .016-.103l2.697-11.266a.893.893 0 0 1 1.08-.663.893.893 0 0 1 .662 1.08l-2.001 8.359 1.018-.955 2.849-11.903a.894.894 0 0 1 1.635-.26.885.885 0 0 1 .107.677l-2.85 11.906.476 1.313 5.044-21.069a.893.893 0 0 1 1.634-.26.884.884 0 0 1 .107.677L83.873 62.2l1.018-.954 2.849-11.903a.893.893 0 0 1 1.08-.663.89.89 0 0 1 .555.403.884.884 0 0 1 .107.677l-2.85 11.907.476 1.313 4.301-17.967a.89.89 0 0 1 .87-.687zM47.362 4.733l1.065-3.66a.902.902 0 0 1 1.11-.61L90.44 12.366c.23.067.42.219.535.429a.889.889 0 0 1 .075.681l-1.065 3.661a.9.9 0 0 1-1.11.61.897.897 0 0 1-.61-1.111l.815-2.8L49.897 2.434l-.815 2.8a.9.9 0 0 1-1.11.61.897.897 0 0 1-.61-1.111zM44.63 43.492l7.442-25.576c-3.506-2.662-4.33-7.684-1.81-11.331a.899.899 0 0 1 1.247-.227c.406.281.509.84.228 1.247a6.52 6.52 0 0 0 1.656 9.059 5.028 5.028 0 0 0 3.765.81 4.99 4.99 0 0 0 3.233-2.089 3.816 3.816 0 0 0 .619-2.876 3.816 3.816 0 0 0-1.597-2.472 2.899 2.899 0 0 0-4.03.735c-.325.47-.447 1.038-.344 1.6s.418 1.05.888 1.375c.335.231.745.319 1.146.247.403-.074.752-.299.984-.636a.897.897 0 0 1 1.475 1.019 3.32 3.32 0 0 1-4.623.845 3.904 3.904 0 0 1-1.632-2.527 3.907 3.907 0 0 1 .633-2.941 4.696 4.696 0 0 1 6.523-1.192 5.6 5.6 0 0 1 2.341 3.625 5.56 5.56 0 0 1-.546 3.619 6.545 6.545 0 0 0 2.707 4.218 5.04 5.04 0 0 0 6.999-1.278 3.849 3.849 0 0 0-.978-5.349 2.891 2.891 0 0 0-2.167-.467 2.876 2.876 0 0 0-1.863 1.203c-.324.47-.447 1.038-.344 1.6s.418 1.05.888 1.375a1.534 1.534 0 0 0 2.131-.39.897.897 0 0 1 1.475 1.019 3.331 3.331 0 0 1-4.623.845 3.904 3.904 0 0 1-1.632-2.527 3.905 3.905 0 0 1 .633-2.94 4.696 4.696 0 0 1 6.523-1.192 5.617 5.617 0 0 1 1.795 7.242 6.543 6.543 0 0 0 2.707 4.219 5.027 5.027 0 0 0 3.764.81 4.994 4.994 0 0 0 3.234-2.089 3.821 3.821 0 0 0 .62-2.876 3.823 3.823 0 0 0-1.597-2.472 2.894 2.894 0 0 0-4.029.737 2.126 2.126 0 0 0-.345 1.6c.103.562.418 1.05.888 1.375a1.534 1.534 0 0 0 2.131-.389.897.897 0 0 1 1.474 1.018 3.328 3.328 0 0 1-4.624.845 3.904 3.904 0 0 1-1.632-2.527 3.904 3.904 0 0 1 .633-2.94 4.658 4.658 0 0 1 3.014-1.947 4.681 4.681 0 0 1 3.508.755c1.239.856 2.07 2.143 2.341 3.624s-.052 2.979-.908 4.217a6.774 6.774 0 0 1-4.386 2.833c-.41.075-.827.113-1.24.113a5.68 5.68 0 0 1-.476-.02l-7.352 25.263a.9.9 0 0 1-1.11.61c-.23-.067-.42-.219-.535-.429s-.142-.452-.075-.682l7.312-25.127a6.827 6.827 0 0 1-1.629-.827 8.33 8.33 0 0 1-3.06-3.937 6.847 6.847 0 0 1-6.163 1.606l-5.859 20.135a.9.9 0 0 1-1.11.61.896.896 0 0 1-.61-1.11l5.899-20.271a6.888 6.888 0 0 1-.638-.391 8.331 8.331 0 0 1-3.059-3.936c-.544.5-1.162.9-1.832 1.197a.875.875 0 0 1 .561-.022.894.894 0 0 1 .61 1.111l-6.106 20.983a.9.9 0 0 1-1.11.61.889.889 0 0 1-.535-.429.891.891 0 0 1-.075-.682l6.106-20.983a.897.897 0 0 1 .431-.534c-.454.19-.931.333-1.427.424a6.776 6.776 0 0 1-3.809-.395l-7.319 25.151a.9.9 0 0 1-1.11.61.889.889 0 0 1-.535-.429.88.88 0 0 1-.08-.685zm-9.415-32.186a.89.89 0 0 1 .789-.471c.393 0 .745.263.858.64.046.155 1.135 3.863.334 7.867-.933 4.663-2.834 6.608-2.915 6.688a.891.891 0 0 1-.634.263.898.898 0 0 1-.635-1.527c.013-.013 1.617-1.724 2.428-5.775.708-3.542-.284-6.969-.294-7.003a.881.881 0 0 1 .069-.682zM21.753 35.832c3.805 0 6.9-3.096 6.9-6.9v-2.771a.897.897 0 0 1 1.792 0v2.771c0 4.793-3.899 8.692-8.692 8.692-4.792 0-8.692-3.899-8.692-8.692v-2.771a.897.897 0 0 1 1.792 0v2.771c0 3.804 3.095 6.9 6.9 6.9zm-1.862-6.061c.257.278.933.559 1.862.559s1.605-.28 1.862-.558a.922.922 0 0 1 1.267-.048.897.897 0 0 1 .048 1.266c-.647.698-1.865 1.132-3.177 1.132-1.313 0-2.531-.435-3.178-1.134a.897.897 0 0 1 .05-1.266.923.923 0 0 1 1.266.049zm-.256-3.845 1.564-5.759a.897.897 0 0 1 1.73.47l-1.564 5.759a.897.897 0 0 1-1.73-.47zm8.791-2.223a5.038 5.038 0 0 1-4.966-5.839 3.213 3.213 0 0 0-1.708-.486 3.21 3.21 0 0 0-1.708.487 5.039 5.039 0 0 1-4.967 5.839 5.039 5.039 0 0 1-5.032-5.032 5.038 5.038 0 0 1 5.032-5.033c1.792 0 3.458.976 4.353 2.519a5.072 5.072 0 0 1 4.643 0 5.06 5.06 0 0 1 4.352-2.518 5.037 5.037 0 0 1 5.032 5.033 5.036 5.036 0 0 1-5.031 5.03zm-12.052 16.64a.922.922 0 0 1 .167-.024l.027-.004.017.001h10.063v-2.524a.897.897 0 0 1 1.792 0v2.758l6.639 2.04a.89.89 0 0 1 .593 1.12.891.891 0 0 1-1.12.593l-7.143-2.194h-10.69l-7.144 2.195a.89.89 0 0 1-1.119-.593.893.893 0 0 1 .593-1.12l7.325-2.248zm.433-36.219h8.956c4.841 0 8.78 3.939 8.78 8.78a.897.897 0 0 1-1.792 0 6.996 6.996 0 0 0-6.988-6.988h-8.956a.897.897 0 0 1 0-1.792zM9.792 6.739a.893.893 0 0 1 1.226.32c.015.024 1.505 2.524 3.528 3.586a3.74 3.74 0 0 0 1.757.431c1.29 0 2.471-.607 3.234-1.117.207-.137.417-.292.641-.454 1.086-.792 2.59-1.89 4.767-1.789 2.633.123 3.961 1.792 4.017 1.863a.892.892 0 0 1-.707 1.446.89.89 0 0 1-.708-.346c-.033-.041-.891-1.09-2.686-1.173-1.55-.075-2.552.663-3.622 1.442-.247.18-.473.345-.709.502-.972.648-2.495 1.422-4.229 1.422a5.507 5.507 0 0 1-2.589-.641C11.219 10.922 9.54 8.083 9.47 7.963a.898.898 0 0 1 .322-1.224zm.176 4.837a.89.89 0 0 1 .805-.501.898.898 0 0 1 .804 1.291c-3.541 7.209-.597 12.274-.567 12.324a.896.896 0 0 1-1.529.933c-.146-.236-3.512-5.905.487-14.047zm-3.862 90.781a.897.897 0 0 1-.896.896H1.093a.897.897 0 0 1-.896-.896v-2.864c0-.494.402-.896.896-.896H5.21c.494 0 .896.402.896.896v2.864zm5.997 5.698a.897.897 0 0 1-.896.896H7.09a.897.897 0 0 1-.896-.896v-2.864c0-.494.402-.896.896-.896h4.117c.494 0 .896.402.896.896v2.864zm5.997-5.698a.897.897 0 0 1-.896.896h-4.117a.897.897 0 0 1-.896-.896v-2.864c0-.494.402-.896.896-.896h4.117c.494 0 .896.402.896.896v2.864zm-1.152-13.775a.884.884 0 0 1-.418-.106c-.034-.018-.057-.03-.079-.045a.92.92 0 0 1-.108-.085l-.057-.057a.872.872 0 0 1-.217-.427.876.876 0 0 1-.018-.176V55.708c0-.494.402-.896.896-.896H63.64c.494 0 .896.402.896.896v31.977a.897.897 0 0 1-.896.896H16.948zm6.51 29.868a.897.897 0 0 1-.896-.896v-12.527a.897.897 0 0 1 1.792 0v11.631h6.048a.899.899 0 0 1 .855 1.164c-1.11 3.547-1.23 4.518-1.23 4.77a2.315 2.315 0 0 0 2.312 2.312 2.315 2.315 0 0 0 2.313-2.312c0-.253-.12-1.225-1.23-4.77a.898.898 0 0 1 .855-1.164h6.049v-6.048a.898.898 0 0 1 1.164-.855c3.546 1.109 4.516 1.229 4.769 1.229a2.314 2.314 0 0 0 2.312-2.311 2.314 2.314 0 0 0-2.312-2.312c-.254 0-1.227.12-4.769 1.229a.898.898 0 0 1-1.164-.855v-6.048H23.458a.897.897 0 0 1 0-1.792H41.22c.494 0 .896.402.896.896v5.732c3.182-.955 3.873-.955 4.141-.955a4.109 4.109 0 0 1 4.104 4.104 4.108 4.108 0 0 1-4.104 4.103c-.653 0-1.975-.304-4.141-.954v5.732a.897.897 0 0 1-.896.896h-5.732c.955 3.184.955 3.874.955 4.142a4.109 4.109 0 0 1-4.105 4.104 4.109 4.109 0 0 1-4.104-4.104c0-.653.304-1.975.955-4.142h-5.731zm9.453-13.102a.897.897 0 0 1 0 1.792h-2.106v2.106a.897.897 0 0 1-1.792 0v-2.106h-2.106a.897.897 0 0 1 0-1.792h2.106v-2.106a.897.897 0 0 1 1.792 0v2.106h2.106zm1.626 6.253a.917.917 0 0 1-1.267.021.892.892 0 0 1-.021-1.267l2.569-2.656a.914.914 0 0 1 .979-.208.893.893 0 0 1 .561.831v6.812a.897.897 0 0 1-1.792 0v-4.597l-1.029 1.064zM8.418 177.33c0-7.3 5.939-13.238 13.24-13.238 7.299 0 13.238 5.938 13.238 13.238 0 7.301-5.938 13.24-13.238 13.24-7.301 0-13.24-5.939-13.24-13.24zm6.023 38.171a.901.901 0 0 1 1.198.411c.011.021 1.156 2.301 2.771 2.751.419.116.873.176 1.348.176 1.511 0 3.058-.599 4.038-1.562l.301-.297c1.35-1.34 2.622-2.602 5.256-2.602.196 0 .401.007.609.021 3.424.229 4.743 4.626 4.797 4.813.067.229.041.472-.075.682s-.306.361-.535.43a.91.91 0 0 1-1.111-.611c-.01-.032-1.031-3.381-3.196-3.525a7.211 7.211 0 0 0-.499-.018c-1.886 0-2.675.783-3.984 2.082l-.307.303c-1.3 1.277-3.339 2.071-5.321 2.071a6.721 6.721 0 0 1-1.802-.236c-2.406-.67-3.841-3.567-3.901-3.69a.9.9 0 0 1 .413-1.199zm-4.044-12.367c0-3.542 2.882-6.423 6.424-6.423s6.424 2.881 6.424 6.423-2.882 6.424-6.424 6.424-6.424-2.882-6.424-6.424zm16.02 51.492c-7.183 0-17.869-1.499-17.869-5.63 0-1.762 1.9-3.18 5.648-4.217a13.16 13.16 0 0 1-.232-1.536c-.294-3.183 2.13-11.825 3.649-16.842l-3.088-3.479a.896.896 0 0 1 .67-1.49H34.31c.494 0 .896.402.896.896v1.928c.941-.649 1.909-.979 2.886-.979.536 0 1.067.103 1.579.305 1.865.737 2.836 2.566 2.597 4.892-.272 2.646-2.015 5.265-4.469 6.747.927 3.846 1.267 6.566 1.011 8.089-.082.483-.183.964-.302 1.434 3.834 1.039 5.778 2.47 5.778 4.253 0 4.13-10.687 5.629-17.869 5.629zm15.35-42.669a4.776 4.776 0 0 1-4.587-6.093l.066-.229-.135.193a4.778 4.778 0 0 1-3.916 2.041 4.748 4.748 0 0 1-2.728-.86 4.731 4.731 0 0 1-1.966-3.076 4.738 4.738 0 0 1 .785-3.565l6.112-8.754a.914.914 0 0 1 1.121-.296l1.933.923 12.165-16.666a.914.914 0 0 1 1.109-.28.896.896 0 0 1 .48 1.039L46.9 196.272l1.934.923a.893.893 0 0 1 .475 1.057l-2.96 10.258a4.794 4.794 0 0 1-4.582 3.447zm11.302 23.718-5.522-4.279a.897.897 0 0 1 1.097-1.417l5.522 4.279a.898.898 0 0 1 .16 1.258.898.898 0 0 1-1.257.159zm22.339-.07-.009.049a.286.286 0 0 1-.008.045l-4.103 18.062a.905.905 0 0 1-.047.126l-.018.038a.864.864 0 0 1-.104.158l-.031.034a1.012 1.012 0 0 1-.11.1l-.039.029a.967.967 0 0 1-.172.096.954.954 0 0 1-.337.066.925.925 0 0 1-.231-.032c-.025-.006-.049-.016-.072-.024a.887.887 0 0 1-.122-.054l-.063-.035-15.572-10.107a.646.646 0 0 1-.07-.068.86.86 0 0 1-.136-.176.807.807 0 0 1-.092-.217.763.763 0 0 1-.032-.232.5.5 0 0 1 0-.087l.011-.075 1.087-6.148a.89.89 0 0 1 .545-.674l3.502-1.424.065-.043h.041l9.82-3.991a.902.902 0 0 1 .861.103l5.125 3.69c.027.023.05.048.071.074a.695.695 0 0 1 .131.178.834.834 0 0 1 .109.343.91.91 0 0 1 .003.117.477.477 0 0 1-.003.079zm-17.447-12.771a.894.894 0 0 1 1.167.494l2.629 6.468a.897.897 0 0 1-1.66.674l-2.629-6.468a.898.898 0 0 1 .493-1.168zm10.689 5.537.969-6.918a.898.898 0 0 1 1.603-.416.893.893 0 0 1 .172.664l-.97 6.918a.9.9 0 0 1-1.013.762.885.885 0 0 1-.589-.347.89.89 0 0 1-.172-.663zm31.008-15.76a.897.897 0 0 1-.896.896H55.02a.896.896 0 0 1-.896-.896V199.67a.897.897 0 0 1 1.792 0v8.646h41.95v-8.646a.897.897 0 0 1 1.792 0v12.941zm2.667-28.779a4.377 4.377 0 0 1 .839-3.266 4.384 4.384 0 0 1 2.902-1.716.908.908 0 0 1 1.013.761.898.898 0 0 1-.761 1.014 2.596 2.596 0 0 0-1.722 1.018 2.601 2.601 0 0 0-.498 1.938 2.6 2.6 0 0 0 1.018 1.723 2.6 2.6 0 0 0 1.937.498.902.902 0 0 1 1.013.76.898.898 0 0 1-.761 1.014 4.36 4.36 0 0 1-3.266-.839 4.39 4.39 0 0 1-1.714-2.905zm8.758 2.301a2.625 2.625 0 0 0-2.956-2.22.902.902 0 0 1-1.013-.762.899.899 0 0 1 .761-1.013c.206-.029.415-.044.621-.044a4.427 4.427 0 0 1 4.362 3.786 4.377 4.377 0 0 1-.839 3.266 4.378 4.378 0 0 1-2.903 1.715.902.902 0 0 1-1.013-.761.898.898 0 0 1 .761-1.013 2.602 2.602 0 0 0 1.723-1.019 2.598 2.598 0 0 0 .496-1.935zm-1.946 14.312a4.362 4.362 0 0 1-3.266-.838 4.38 4.38 0 0 1-1.716-2.903 4.41 4.41 0 0 1 3.742-4.981.902.902 0 0 1 1.013.761.896.896 0 0 1-.761 1.013 2.618 2.618 0 0 0-2.22 2.956c.098.69.46 1.303 1.018 1.722a2.603 2.603 0 0 0 1.937.498.903.903 0 0 1 1.014.761.896.896 0 0 1-.761 1.011zm4.711 1.573a4.38 4.38 0 0 1-2.903 1.717.903.903 0 0 1-1.013-.762.898.898 0 0 1 .761-1.014c.691-.098 1.303-.459 1.723-1.018s.596-1.246.498-1.938a2.602 2.602 0 0 0-1.019-1.723 2.6 2.6 0 0 0-1.938-.497.894.894 0 0 1-1.013-.761.9.9 0 0 1 .761-1.014 4.393 4.393 0 0 1 3.267.839 4.374 4.374 0 0 1 1.716 2.903 4.383 4.383 0 0 1-.84 3.268zm5.001-35.619c-.453.661-1.058 1.126-1.776 1.333l-.043.015-18.124 5.591-.082.025-.149.044c-.284.074-.566.11-.851.11h-.001c-.911 0-1.834-.363-2.671-1.051a.895.895 0 1 1 1.137-1.385c.65.535 1.341.747 1.932.592 1.41-.377 2.095-2.777 1.473-5.138-.329-1.249-.95-2.331-1.747-3.043-.688-.614-1.42-.868-2.056-.704l-.026.006c-.601.16-1.105.713-1.408 1.552a.899.899 0 0 1-1.146.54.898.898 0 0 1-.541-1.147c.508-1.412 1.451-2.364 2.654-2.681l.086-.021.163-.036 18.547-4.07c.223-.055.466-.084.71-.084.504 0 1.008.127 1.496.366a.895.895 0 0 1 .077-1.109l3.117-3.406c.03-.029.059-.055.088-.078l.022-.018a.918.918 0 0 1 .12-.073l.054-.025a.91.91 0 0 1 .813.054l.03.018c1.1.725 2.122 1.818 2.962 3.166.04.051.073.105.1.161a14.691 14.691 0 0 1 1.616 3.853c.364 1.379.529 2.771.492 4.138a.909.909 0 0 1-.008.214c-.068 1.582-.419 3.033-1.014 4.197a.568.568 0 0 1-.063.096l-.03.043a.925.925 0 0 1-.167.164l-.028.022a.869.869 0 0 1-.205.106l-.037.014a.86.86 0 0 1-.487.013l-.063-.017-4.356-1.418a.897.897 0 0 1-.61-.929zm9.276 44.568c.167.172.256.398.253.638a.89.89 0 0 1-.896.882.89.89 0 0 1-.643-.271l-.778-.802-.802.778a.917.917 0 0 1-1.267-.018.898.898 0 0 1 .019-1.268l.802-.779-.779-.802a.888.888 0 0 1-.253-.638.889.889 0 0 1 .272-.629.917.917 0 0 1 1.267.019l.778.802.802-.778a.917.917 0 0 1 1.267.019.898.898 0 0 1-.019 1.268l-.802.778.779.801zm-7.021-10.125a.897.897 0 0 1-.896-.896v-6.426c0-.494.402-.896.896-.896h39.464c.494 0 .896.401.896.896v6.426a.897.897 0 0 1-.896.896h-39.464zm22.451 11.391a.88.88 0 0 1-.518.448.894.894 0 0 1-1.133-.567l-1.453-4.37a.895.895 0 0 1 .626-1.149l2.314-.603a.895.895 0 0 1 1.105.697l.865 4.524a.897.897 0 0 1-1.723.473.88.88 0 0 1-.083.547zm-4.938 6.856a.917.917 0 0 1 1.267.021c.522.541 1.198.968 1.976 1.249l-.176-4.409a2.958 2.958 0 0 1 .337-2.138 2.95 2.95 0 0 1 1.814-1.373c.247-.063.499-.096.751-.096 1.301 0 2.465.866 2.841 2.112l1.997 3.933c.541-.625.923-1.328 1.115-2.055a.894.894 0 0 1 1.094-.637.897.897 0 0 1 .639 1.095c-.319 1.208-1.004 2.341-1.988 3.29l3.094 6.09a.899.899 0 0 1-.393 1.205.891.891 0 0 1-1.204-.393l-2.938-5.784a8.864 8.864 0 0 1-1.596.78l.197.757c.061.23.027.473-.094.679a.887.887 0 0 1-.774.442.895.895 0 0 1-.867-.67l-.197-.757a8.833 8.833 0 0 1-1.773.101l.26 6.48a.892.892 0 0 1-.859.932h-.036a.895.895 0 0 1-.896-.86l-.271-6.824c-1.321-.349-2.471-1.003-3.341-1.903a.897.897 0 0 1 .021-1.267zm14.871 8.388c.34 0 .646.188.8.49l.949 1.869a.893.893 0 0 1-.393 1.205.894.894 0 0 1-1.204-.393l-.949-1.869a.893.893 0 0 1 .393-1.205.894.894 0 0 1 .404-.097zm-9.326 5.64a.887.887 0 0 1-.238.643.885.885 0 0 1-.622.287l-.036.002a.895.895 0 0 1-.895-.861l-.083-2.093a.896.896 0 0 1 .86-.931l.033-.001c.484 0 .879.378.896.86l.085 2.094zm1.181 15.412a.896.896 0 0 1-.896.896h-3.465a.897.897 0 0 1-.896-.896v-2.41c0-.493.402-.896.896-.896h3.465c.494 0 .896.402.896.896v2.41zm10.093 0a.897.897 0 0 1-.896.896h-3.465a.897.897 0 0 1-.896-.896v-2.41c0-.493.401-.896.896-.896h3.465c.494 0 .896.402.896.896v2.41zm-.934-8.021a10.297 10.297 0 0 1-11.578-4.931.9.9 0 0 1 .344-1.22.9.9 0 0 1 1.221.344 8.502 8.502 0 0 0 15.92-4.146.897.897 0 0 1 1.792 0 10.295 10.295 0 0 1-7.699 9.953zm11.025 8.021a.897.897 0 0 1-.896.896h-3.464a.897.897 0 0 1-.896-.896v-2.41c0-.493.401-.896.896-.896h3.464c.494 0 .896.402.896.896v2.41zm3.066-35.099h-4.716a2.72 2.72 0 0 1-1.675 1.676v4.717a.897.897 0 0 1-1.792 0l.001-4.717a2.715 2.715 0 0 1-1.676-1.676h-4.717a.897.897 0 0 1 0-1.792h4.718a2.715 2.715 0 0 1 1.674-1.675v-4.717a.897.897 0 0 1 1.792 0v4.717a2.72 2.72 0 0 1 1.675 1.674h4.717a.896.896 0 1 1-.001 1.793zm6.361-3.785-.802.778a.917.917 0 0 1-1.267-.019.897.897 0 0 1 .019-1.268l.802-.778-.778-.802a.897.897 0 0 1 .019-1.268.917.917 0 0 1 1.267.02l.779.802.801-.778a.919.919 0 0 1 1.268.018.898.898 0 0 1-.019 1.268l-.802.779.778.802a.898.898 0 0 1-1.287 1.248l-.778-.802zm6.22 16.601-1.124-.008-.009 1.117a.898.898 0 0 1-.896.891h-.004a.897.897 0 0 1-.892-.904l.008-1.118-1.119-.008a.897.897 0 0 1 .007-1.792l1.124.009.009-1.118a.897.897 0 0 1 1.792.013l-.008 1.118 1.118.009a.898.898 0 0 1 .89.902.898.898 0 0 1-.896.889zm6.228-11.9a.896.896 0 0 1-1.286 1.249l-.779-.802-.801.778a.919.919 0 0 1-1.268-.019.897.897 0 0 1 .019-1.267l.802-.779-.779-.803a.897.897 0 0 1 .02-1.267.919.919 0 0 1 1.268.019l.778.803.802-.778a.916.916 0 0 1 1.267.019.896.896 0 0 1-.019 1.267l-.802.778.778.802zm18.942 6.316V239.7a.897.897 0 0 1-.896.896h-12.944c-1.043 0-1.891.669-1.891 1.49 0 .559.409 1.066 1.021 1.319v-1.579a.896.896 0 0 1 1.792 0v4.309a.9.9 0 0 1 .586-.225c.247 0 .479.1.646.269v-4.353a.896.896 0 0 1 1.792 0v1.75h8.999a.897.897 0 0 1 0 1.792h-8.999v4.018a.898.898 0 0 1-.896.895.901.901 0 0 1-.77-.438l-.753-1.265-.725 1.254a.91.91 0 0 1-1.008.418.896.896 0 0 1-.664-.865v-4.113c-1.626-.354-2.813-1.674-2.813-3.186v-19.274c0-1.81 1.652-3.281 3.684-3.281h12.944a.897.897 0 0 1 .888 1.015.892.892 0 0 1 .007.116zm33.48 27.556a.897.897 0 0 1-1.217.352l-21.602-11.931.642.85a.897.897 0 0 1-1.43 1.082L213 234.307a.815.815 0 0 1-.078-.15l-.02-.047a.895.895 0 0 1-.047-.225l-.002-.022v-.016a.876.876 0 0 1 .016-.19c.002-.016.007-.037.012-.059a.959.959 0 0 1 .083-.215.889.889 0 0 1 .14-.186l.043-.042a.899.899 0 0 1 .635-.232l.067.003 5.236.45a.893.893 0 0 1 .816.969.898.898 0 0 1-.974.814l-1.058-.09L239.473 247c.433.239.59.785.351 1.218zm-1.131-16.087c-1.709 0-3.203-1.262-3.6-2.986-.633.013-1.527.024-2.603.024-4.567 0-12.661-.226-15.55-1.736-3.268-1.71-5.553-5.251-6.986-10.826-.639-2.484-2.438-5.504-7.37-5.782-4.36-.245-7.386-1.369-9.521-3.536-.889-.903-1.463-2.536-1.709-4.86h-21.09a.895.895 0 0 1-.812-1.275c.673-1.439 1.777-2.771 3.2-3.859v-3.982c0-.494.402-.896.896-.896h.676v-19.086c-.841-.371-1.406-1.24-1.406-2.207 0-1.322 1.032-2.398 2.302-2.398.556 0 1.092.212 1.509.591L189.58 163c.041-1.286 1.058-2.319 2.301-2.319 1.27 0 2.303 1.077 2.303 2.399 0 .475-.135.916-.363 1.288a.888.888 0 0 1 .824.313l4.159 5.018c1.515-1.152 3.343-1.76 5.314-1.76 2.021 0 4.052.638 5.875 1.843a.892.892 0 0 1 .398.67.893.893 0 0 1-.276.728l-3.705 3.51a.855.855 0 0 1 .213.182c1.264 1.522 1.129 3.862-.3 5.215a3.435 3.435 0 0 1-2.574.951 3.462 3.462 0 0 1-2.468-1.272.849.849 0 0 1-.09-.134l-3.596 3.404a.894.894 0 0 1-1.439-.295c-1.822-4.215-1.292-8.811 1.335-11.814l-4.229-5.102a.884.884 0 0 1-.201-.655c0-.013.005-.025.007-.038a2.22 2.22 0 0 1-1.188.348c-.65 0-1.264-.286-1.697-.779l-12.77 6.229c.005.066.008.132.008.197 0 .967-.565 1.836-1.406 2.207v19.086h.676c.494 0 .896.402.896.896v1.554a17.752 17.752 0 0 1 4.907-.683c5.854 0 11.095 2.802 13.043 6.971.13.279.109.602-.057.861s-.447.414-.756.414h-1.568c.205 1.761.62 3.031 1.183 3.603 1.804 1.831 4.456 2.786 8.345 3.005 4.693.265 7.891 2.795 9.006 7.125 1.299 5.056 3.289 8.224 6.08 9.685 3.156 1.651 14.445 1.558 17.313 1.507.384-1.745 1.883-3.023 3.608-3.023h2.991v-.695a.896.896 0 0 1 1.792 0v1.623a.91.91 0 0 1 .262-.043h2.977a.896.896 0 0 1 0 1.792h-2.977a.91.91 0 0 1-.262-.043v2.538a.877.877 0 0 1 .262-.044h2.977a.897.897 0 0 1 0 1.792h-2.977a.877.877 0 0 1-.262-.044v1.624a.897.897 0 0 1-1.792 0v-.696h-2.989zm-36.898-48.635v5.395a.897.897 0 0 1-1.792 0v-5.395c0-.493.402-.896.896-.896s.896.403.896.896zm-19.009-.355a.897.897 0 0 1 0-1.792h2.076v-2.076a.897.897 0 0 1 1.792 0v2.076h2.076a.897.897 0 0 1 0 1.792h-2.076v2.076a.897.897 0 0 1-1.792 0v-2.076h-2.076zm62.186 71.182a3.174 3.174 0 0 1-3.171-3.17 3.174 3.174 0 0 1 3.171-3.169 3.173 3.173 0 0 1 3.169 3.169 3.173 3.173 0 0 1-3.169 3.17z"/>
		<path d="M143.566 214.719a1.18 1.18 0 1 0 2.161.301 1.18 1.18 0 0 0-2.161-.301z"/>
		<circle cx="21.658" cy="177.331" r="1.228"/>
		<path d="m56.816 237.951-.719 4.067 4.286-1.743-1.317-3.238zM145.471 218.715a.894.894 0 0 1 1.092.641l.229.879a7.119 7.119 0 0 0 1.237-.637l-1.193-2.348a2.96 2.96 0 0 1-3.273.857l.105 2.627c.46.029.926.014 1.39-.049l-.229-.878a.887.887 0 0 1 .095-.679.883.883 0 0 1 .547-.413zM248.377 182.008a.897.897 0 0 1-.625 1.103l-.32.089.164.592c.123-.01.244-.015.361-.015 1.705 0 3.139.929 3.651 2.339l1.313-.362c.26-.071.527-.108.792-.108 1.009 0 1.874.508 2.286 1.301v-5.436l-7.741.068.119.429zM245.771 181.798l.407-.112a1.651 1.651 0 0 1-.573-.49l.166.602zM245.529 179.336l-.406.111.166.603c.025-.253.107-.497.24-.714zM244.891 189.826l-2.113.584c-.475.131-.799.527-.705.865.07.254.363.424.731.424.105 0 .212-.015.317-.044l10.619-2.929c.261-.072.477-.219.608-.414.103-.15.138-.311.099-.451-.07-.254-.365-.424-.733-.424-.104 0-.212.014-.316.043l-2.165.598-6.342 1.748zM247.957 185.568c-.256 0-.516.035-.771.105-.636.176-1.17.543-1.506 1.034-.247.361-.358.755-.324 1.132l4.513-1.244c-.302-.623-1.034-1.027-1.912-1.027zM250.232 205.582a5.294 5.294 0 0 0 .504-4.049 5.303 5.303 0 0 0-2.508-3.221 5.304 5.304 0 0 0-3.166-.666l.408 1.476a3.84 3.84 0 0 1 3.821 2.809c.47 1.704-.316 3.524-1.842 4.37l.407 1.478a5.24 5.24 0 0 0 2.376-2.197zM251.992 106.087h2.324v1.072h-2.324zM37.967 246.454c-1.452 3.786-4.146 5.948-7.434 5.948h-8.286c-3.274 0-6.206-2.305-7.551-5.902-3.436.949-4.358 2.039-4.358 2.496 0 1.564 6.263 3.838 16.077 3.838s16.077-2.273 16.077-3.838c.002-.469-.955-1.584-4.525-2.542zM255.832 189.317a2.506 2.506 0 0 1-.268.331l.436 1.578v-2.199a2.42 2.42 0 0 1-.168.29zM55.916 210.109h41.95v1.605h-41.95zM249.561 215.005a1.06 1.06 0 0 0-.607.413c-.102.151-.137.313-.098.452.07.254.364.425.732.425.105 0 .212-.015.316-.043L256 214.57v-1.342l-6.439 1.777z"/>
		<path d="M247.564 202.406a2.048 2.048 0 0 0-1.592-1.461l.975 3.533a2.054 2.054 0 0 0 .617-2.072z"/>
		<path d="m253.949 190.527-10.082 2.781.714 2.592a7.109 7.109 0 0 1 4.532.854 7.088 7.088 0 0 1 3.351 4.303 7.077 7.077 0 0 1-.672 5.41 7.113 7.113 0 0 1-3.453 3.057l1.015 3.68L256 211.37v-13.404l-2.051-7.439zM249.135 83.174H256v1.929h-6.865z"/>
	</g>
</svg>